<?xml version="1.0" encoding="utf-8" standalone="no"?>
<!DOCTYPE svg PUBLIC "-//W3C//DTD SVG 1.1//EN"
  "http://www.w3.org/Graphics/SVG/1.1/DTD/svg11.dtd">
<!-- Created with matplotlib (https://matplotlib.org/) -->
<svg height="576pt" version="1.1" viewBox="0 0 1728 576" width="1728pt" xmlns="http://www.w3.org/2000/svg" xmlns:xlink="http://www.w3.org/1999/xlink">
 <metadata>
  <rdf:RDF xmlns:cc="http://creativecommons.org/ns#" xmlns:dc="http://purl.org/dc/elements/1.1/" xmlns:rdf="http://www.w3.org/1999/02/22-rdf-syntax-ns#">
   <cc:Work>
    <dc:type rdf:resource="http://purl.org/dc/dcmitype/StillImage"/>
    <dc:date>2020-12-13T19:56:17.881185</dc:date>
    <dc:format>image/svg+xml</dc:format>
    <dc:creator>
     <cc:Agent>
      <dc:title>Matplotlib v3.3.2, https://matplotlib.org/</dc:title>
     </cc:Agent>
    </dc:creator>
   </cc:Work>
  </rdf:RDF>
 </metadata>
 <defs>
  <style type="text/css">*{stroke-linecap:butt;stroke-linejoin:round;}</style>
 </defs>
 <g id="figure_1">
  <g id="patch_1">
   <path d="M 0 576 
L 1728 576 
L 1728 0 
L 0 0 
z
" style="fill:#ffffff;"/>
  </g>
  <g id="axes_1">
   <g id="patch_2">
    <path d="M 216 512.64 
L 1555.2 512.64 
L 1555.2 69.12 
L 216 69.12 
z
" style="fill:#ffffff;"/>
   </g>
   <g id="matplotlib.axis_1">
    <g id="xtick_1">
     <g id="line2d_1">
      <defs>
       <path d="M 0 0 
L 0 3.5 
" id="mf4fd56ec9a" style="stroke:#000000;stroke-width:0.8;"/>
      </defs>
      <g>
       <use style="stroke:#000000;stroke-width:0.8;" x="276.872727" xlink:href="#mf4fd56ec9a" y="512.64"/>
      </g>
     </g>
     <g id="text_1">
      <!-- 23:22:00 -->
      <g transform="translate(254.416477 527.238438)scale(0.1 -0.1)">
       <defs>
        <path d="M 19.1875 8.296875 
L 53.609375 8.296875 
L 53.609375 0 
L 7.328125 0 
L 7.328125 8.296875 
Q 12.9375 14.109375 22.625 23.890625 
Q 32.328125 33.6875 34.8125 36.53125 
Q 39.546875 41.84375 41.421875 45.53125 
Q 43.3125 49.21875 43.3125 52.78125 
Q 43.3125 58.59375 39.234375 62.25 
Q 35.15625 65.921875 28.609375 65.921875 
Q 23.96875 65.921875 18.8125 64.3125 
Q 13.671875 62.703125 7.8125 59.421875 
L 7.8125 69.390625 
Q 13.765625 71.78125 18.9375 73 
Q 24.125 74.21875 28.421875 74.21875 
Q 39.75 74.21875 46.484375 68.546875 
Q 53.21875 62.890625 53.21875 53.421875 
Q 53.21875 48.921875 51.53125 44.890625 
Q 49.859375 40.875 45.40625 35.40625 
Q 44.1875 33.984375 37.640625 27.21875 
Q 31.109375 20.453125 19.1875 8.296875 
z
" id="DejaVuSans-50"/>
        <path d="M 40.578125 39.3125 
Q 47.65625 37.796875 51.625 33 
Q 55.609375 28.21875 55.609375 21.1875 
Q 55.609375 10.40625 48.1875 4.484375 
Q 40.765625 -1.421875 27.09375 -1.421875 
Q 22.515625 -1.421875 17.65625 -0.515625 
Q 12.796875 0.390625 7.625 2.203125 
L 7.625 11.71875 
Q 11.71875 9.328125 16.59375 8.109375 
Q 21.484375 6.890625 26.8125 6.890625 
Q 36.078125 6.890625 40.9375 10.546875 
Q 45.796875 14.203125 45.796875 21.1875 
Q 45.796875 27.640625 41.28125 31.265625 
Q 36.765625 34.90625 28.71875 34.90625 
L 20.21875 34.90625 
L 20.21875 43.015625 
L 29.109375 43.015625 
Q 36.375 43.015625 40.234375 45.921875 
Q 44.09375 48.828125 44.09375 54.296875 
Q 44.09375 59.90625 40.109375 62.90625 
Q 36.140625 65.921875 28.71875 65.921875 
Q 24.65625 65.921875 20.015625 65.03125 
Q 15.375 64.15625 9.8125 62.3125 
L 9.8125 71.09375 
Q 15.4375 72.65625 20.34375 73.4375 
Q 25.25 74.21875 29.59375 74.21875 
Q 40.828125 74.21875 47.359375 69.109375 
Q 53.90625 64.015625 53.90625 55.328125 
Q 53.90625 49.265625 50.4375 45.09375 
Q 46.96875 40.921875 40.578125 39.3125 
z
" id="DejaVuSans-51"/>
        <path d="M 11.71875 12.40625 
L 22.015625 12.40625 
L 22.015625 0 
L 11.71875 0 
z
M 11.71875 51.703125 
L 22.015625 51.703125 
L 22.015625 39.3125 
L 11.71875 39.3125 
z
" id="DejaVuSans-58"/>
        <path d="M 31.78125 66.40625 
Q 24.171875 66.40625 20.328125 58.90625 
Q 16.5 51.421875 16.5 36.375 
Q 16.5 21.390625 20.328125 13.890625 
Q 24.171875 6.390625 31.78125 6.390625 
Q 39.453125 6.390625 43.28125 13.890625 
Q 47.125 21.390625 47.125 36.375 
Q 47.125 51.421875 43.28125 58.90625 
Q 39.453125 66.40625 31.78125 66.40625 
z
M 31.78125 74.21875 
Q 44.046875 74.21875 50.515625 64.515625 
Q 56.984375 54.828125 56.984375 36.375 
Q 56.984375 17.96875 50.515625 8.265625 
Q 44.046875 -1.421875 31.78125 -1.421875 
Q 19.53125 -1.421875 13.0625 8.265625 
Q 6.59375 17.96875 6.59375 36.375 
Q 6.59375 54.828125 13.0625 64.515625 
Q 19.53125 74.21875 31.78125 74.21875 
z
" id="DejaVuSans-48"/>
       </defs>
       <use xlink:href="#DejaVuSans-50"/>
       <use x="63.623047" xlink:href="#DejaVuSans-51"/>
       <use x="127.246094" xlink:href="#DejaVuSans-58"/>
       <use x="160.9375" xlink:href="#DejaVuSans-50"/>
       <use x="224.560547" xlink:href="#DejaVuSans-50"/>
       <use x="288.183594" xlink:href="#DejaVuSans-58"/>
       <use x="321.875" xlink:href="#DejaVuSans-48"/>
       <use x="385.498047" xlink:href="#DejaVuSans-48"/>
      </g>
     </g>
    </g>
    <g id="xtick_2">
     <g id="line2d_2">
      <g>
       <use style="stroke:#000000;stroke-width:0.8;" x="398.72507" xlink:href="#mf4fd56ec9a" y="512.64"/>
      </g>
     </g>
     <g id="text_2">
      <!-- 00:19:00 -->
      <g transform="translate(376.26882 527.238438)scale(0.1 -0.1)">
       <defs>
        <path d="M 12.40625 8.296875 
L 28.515625 8.296875 
L 28.515625 63.921875 
L 10.984375 60.40625 
L 10.984375 69.390625 
L 28.421875 72.90625 
L 38.28125 72.90625 
L 38.28125 8.296875 
L 54.390625 8.296875 
L 54.390625 0 
L 12.40625 0 
z
" id="DejaVuSans-49"/>
        <path d="M 10.984375 1.515625 
L 10.984375 10.5 
Q 14.703125 8.734375 18.5 7.8125 
Q 22.3125 6.890625 25.984375 6.890625 
Q 35.75 6.890625 40.890625 13.453125 
Q 46.046875 20.015625 46.78125 33.40625 
Q 43.953125 29.203125 39.59375 26.953125 
Q 35.25 24.703125 29.984375 24.703125 
Q 19.046875 24.703125 12.671875 31.3125 
Q 6.296875 37.9375 6.296875 49.421875 
Q 6.296875 60.640625 12.9375 67.421875 
Q 19.578125 74.21875 30.609375 74.21875 
Q 43.265625 74.21875 49.921875 64.515625 
Q 56.59375 54.828125 56.59375 36.375 
Q 56.59375 19.140625 48.40625 8.859375 
Q 40.234375 -1.421875 26.421875 -1.421875 
Q 22.703125 -1.421875 18.890625 -0.6875 
Q 15.09375 0.046875 10.984375 1.515625 
z
M 30.609375 32.421875 
Q 37.25 32.421875 41.125 36.953125 
Q 45.015625 41.5 45.015625 49.421875 
Q 45.015625 57.28125 41.125 61.84375 
Q 37.25 66.40625 30.609375 66.40625 
Q 23.96875 66.40625 20.09375 61.84375 
Q 16.21875 57.28125 16.21875 49.421875 
Q 16.21875 41.5 20.09375 36.953125 
Q 23.96875 32.421875 30.609375 32.421875 
z
" id="DejaVuSans-57"/>
       </defs>
       <use xlink:href="#DejaVuSans-48"/>
       <use x="63.623047" xlink:href="#DejaVuSans-48"/>
       <use x="127.246094" xlink:href="#DejaVuSans-58"/>
       <use x="160.9375" xlink:href="#DejaVuSans-49"/>
       <use x="224.560547" xlink:href="#DejaVuSans-57"/>
       <use x="288.183594" xlink:href="#DejaVuSans-58"/>
       <use x="321.875" xlink:href="#DejaVuSans-48"/>
       <use x="385.498047" xlink:href="#DejaVuSans-48"/>
      </g>
     </g>
    </g>
    <g id="xtick_3">
     <g id="line2d_3">
      <g>
       <use style="stroke:#000000;stroke-width:0.8;" x="520.577412" xlink:href="#mf4fd56ec9a" y="512.64"/>
      </g>
     </g>
     <g id="text_3">
      <!-- 01:16:00 -->
      <g transform="translate(498.121162 527.238438)scale(0.1 -0.1)">
       <defs>
        <path d="M 33.015625 40.375 
Q 26.375 40.375 22.484375 35.828125 
Q 18.609375 31.296875 18.609375 23.390625 
Q 18.609375 15.53125 22.484375 10.953125 
Q 26.375 6.390625 33.015625 6.390625 
Q 39.65625 6.390625 43.53125 10.953125 
Q 47.40625 15.53125 47.40625 23.390625 
Q 47.40625 31.296875 43.53125 35.828125 
Q 39.65625 40.375 33.015625 40.375 
z
M 52.59375 71.296875 
L 52.59375 62.3125 
Q 48.875 64.0625 45.09375 64.984375 
Q 41.3125 65.921875 37.59375 65.921875 
Q 27.828125 65.921875 22.671875 59.328125 
Q 17.53125 52.734375 16.796875 39.40625 
Q 19.671875 43.65625 24.015625 45.921875 
Q 28.375 48.1875 33.59375 48.1875 
Q 44.578125 48.1875 50.953125 41.515625 
Q 57.328125 34.859375 57.328125 23.390625 
Q 57.328125 12.15625 50.6875 5.359375 
Q 44.046875 -1.421875 33.015625 -1.421875 
Q 20.359375 -1.421875 13.671875 8.265625 
Q 6.984375 17.96875 6.984375 36.375 
Q 6.984375 53.65625 15.1875 63.9375 
Q 23.390625 74.21875 37.203125 74.21875 
Q 40.921875 74.21875 44.703125 73.484375 
Q 48.484375 72.75 52.59375 71.296875 
z
" id="DejaVuSans-54"/>
       </defs>
       <use xlink:href="#DejaVuSans-48"/>
       <use x="63.623047" xlink:href="#DejaVuSans-49"/>
       <use x="127.246094" xlink:href="#DejaVuSans-58"/>
       <use x="160.9375" xlink:href="#DejaVuSans-49"/>
       <use x="224.560547" xlink:href="#DejaVuSans-54"/>
       <use x="288.183594" xlink:href="#DejaVuSans-58"/>
       <use x="321.875" xlink:href="#DejaVuSans-48"/>
       <use x="385.498047" xlink:href="#DejaVuSans-48"/>
      </g>
     </g>
    </g>
    <g id="xtick_4">
     <g id="line2d_4">
      <g>
       <use style="stroke:#000000;stroke-width:0.8;" x="642.429755" xlink:href="#mf4fd56ec9a" y="512.64"/>
      </g>
     </g>
     <g id="text_4">
      <!-- 02:13:00 -->
      <g transform="translate(619.973505 527.238438)scale(0.1 -0.1)">
       <use xlink:href="#DejaVuSans-48"/>
       <use x="63.623047" xlink:href="#DejaVuSans-50"/>
       <use x="127.246094" xlink:href="#DejaVuSans-58"/>
       <use x="160.9375" xlink:href="#DejaVuSans-49"/>
       <use x="224.560547" xlink:href="#DejaVuSans-51"/>
       <use x="288.183594" xlink:href="#DejaVuSans-58"/>
       <use x="321.875" xlink:href="#DejaVuSans-48"/>
       <use x="385.498047" xlink:href="#DejaVuSans-48"/>
      </g>
     </g>
    </g>
    <g id="xtick_5">
     <g id="line2d_5">
      <g>
       <use style="stroke:#000000;stroke-width:0.8;" x="764.282098" xlink:href="#mf4fd56ec9a" y="512.64"/>
      </g>
     </g>
     <g id="text_5">
      <!-- 03:10:00 -->
      <g transform="translate(741.825848 527.238438)scale(0.1 -0.1)">
       <use xlink:href="#DejaVuSans-48"/>
       <use x="63.623047" xlink:href="#DejaVuSans-51"/>
       <use x="127.246094" xlink:href="#DejaVuSans-58"/>
       <use x="160.9375" xlink:href="#DejaVuSans-49"/>
       <use x="224.560547" xlink:href="#DejaVuSans-48"/>
       <use x="288.183594" xlink:href="#DejaVuSans-58"/>
       <use x="321.875" xlink:href="#DejaVuSans-48"/>
       <use x="385.498047" xlink:href="#DejaVuSans-48"/>
      </g>
     </g>
    </g>
    <g id="xtick_6">
     <g id="line2d_6">
      <g>
       <use style="stroke:#000000;stroke-width:0.8;" x="886.13444" xlink:href="#mf4fd56ec9a" y="512.64"/>
      </g>
     </g>
     <g id="text_6">
      <!-- 04:07:00 -->
      <g transform="translate(863.67819 527.238438)scale(0.1 -0.1)">
       <defs>
        <path d="M 37.796875 64.3125 
L 12.890625 25.390625 
L 37.796875 25.390625 
z
M 35.203125 72.90625 
L 47.609375 72.90625 
L 47.609375 25.390625 
L 58.015625 25.390625 
L 58.015625 17.1875 
L 47.609375 17.1875 
L 47.609375 0 
L 37.796875 0 
L 37.796875 17.1875 
L 4.890625 17.1875 
L 4.890625 26.703125 
z
" id="DejaVuSans-52"/>
        <path d="M 8.203125 72.90625 
L 55.078125 72.90625 
L 55.078125 68.703125 
L 28.609375 0 
L 18.3125 0 
L 43.21875 64.59375 
L 8.203125 64.59375 
z
" id="DejaVuSans-55"/>
       </defs>
       <use xlink:href="#DejaVuSans-48"/>
       <use x="63.623047" xlink:href="#DejaVuSans-52"/>
       <use x="127.246094" xlink:href="#DejaVuSans-58"/>
       <use x="160.9375" xlink:href="#DejaVuSans-48"/>
       <use x="224.560547" xlink:href="#DejaVuSans-55"/>
       <use x="288.183594" xlink:href="#DejaVuSans-58"/>
       <use x="321.875" xlink:href="#DejaVuSans-48"/>
       <use x="385.498047" xlink:href="#DejaVuSans-48"/>
      </g>
     </g>
    </g>
    <g id="xtick_7">
     <g id="line2d_7">
      <g>
       <use style="stroke:#000000;stroke-width:0.8;" x="1007.986783" xlink:href="#mf4fd56ec9a" y="512.64"/>
      </g>
     </g>
     <g id="text_7">
      <!-- 05:04:00 -->
      <g transform="translate(985.530533 527.238438)scale(0.1 -0.1)">
       <defs>
        <path d="M 10.796875 72.90625 
L 49.515625 72.90625 
L 49.515625 64.59375 
L 19.828125 64.59375 
L 19.828125 46.734375 
Q 21.96875 47.46875 24.109375 47.828125 
Q 26.265625 48.1875 28.421875 48.1875 
Q 40.625 48.1875 47.75 41.5 
Q 54.890625 34.8125 54.890625 23.390625 
Q 54.890625 11.625 47.5625 5.09375 
Q 40.234375 -1.421875 26.90625 -1.421875 
Q 22.3125 -1.421875 17.546875 -0.640625 
Q 12.796875 0.140625 7.71875 1.703125 
L 7.71875 11.625 
Q 12.109375 9.234375 16.796875 8.0625 
Q 21.484375 6.890625 26.703125 6.890625 
Q 35.15625 6.890625 40.078125 11.328125 
Q 45.015625 15.765625 45.015625 23.390625 
Q 45.015625 31 40.078125 35.4375 
Q 35.15625 39.890625 26.703125 39.890625 
Q 22.75 39.890625 18.8125 39.015625 
Q 14.890625 38.140625 10.796875 36.28125 
z
" id="DejaVuSans-53"/>
       </defs>
       <use xlink:href="#DejaVuSans-48"/>
       <use x="63.623047" xlink:href="#DejaVuSans-53"/>
       <use x="127.246094" xlink:href="#DejaVuSans-58"/>
       <use x="160.9375" xlink:href="#DejaVuSans-48"/>
       <use x="224.560547" xlink:href="#DejaVuSans-52"/>
       <use x="288.183594" xlink:href="#DejaVuSans-58"/>
       <use x="321.875" xlink:href="#DejaVuSans-48"/>
       <use x="385.498047" xlink:href="#DejaVuSans-48"/>
      </g>
     </g>
    </g>
    <g id="xtick_8">
     <g id="line2d_8">
      <g>
       <use style="stroke:#000000;stroke-width:0.8;" x="1129.839125" xlink:href="#mf4fd56ec9a" y="512.64"/>
      </g>
     </g>
     <g id="text_8">
      <!-- 06:01:00 -->
      <g transform="translate(1107.382875 527.238438)scale(0.1 -0.1)">
       <use xlink:href="#DejaVuSans-48"/>
       <use x="63.623047" xlink:href="#DejaVuSans-54"/>
       <use x="127.246094" xlink:href="#DejaVuSans-58"/>
       <use x="160.9375" xlink:href="#DejaVuSans-48"/>
       <use x="224.560547" xlink:href="#DejaVuSans-49"/>
       <use x="288.183594" xlink:href="#DejaVuSans-58"/>
       <use x="321.875" xlink:href="#DejaVuSans-48"/>
       <use x="385.498047" xlink:href="#DejaVuSans-48"/>
      </g>
     </g>
    </g>
    <g id="xtick_9">
     <g id="line2d_9">
      <g>
       <use style="stroke:#000000;stroke-width:0.8;" x="1251.691468" xlink:href="#mf4fd56ec9a" y="512.64"/>
      </g>
     </g>
     <g id="text_9">
      <!-- 06:58:00 -->
      <g transform="translate(1229.235218 527.238438)scale(0.1 -0.1)">
       <defs>
        <path d="M 31.78125 34.625 
Q 24.75 34.625 20.71875 30.859375 
Q 16.703125 27.09375 16.703125 20.515625 
Q 16.703125 13.921875 20.71875 10.15625 
Q 24.75 6.390625 31.78125 6.390625 
Q 38.8125 6.390625 42.859375 10.171875 
Q 46.921875 13.96875 46.921875 20.515625 
Q 46.921875 27.09375 42.890625 30.859375 
Q 38.875 34.625 31.78125 34.625 
z
M 21.921875 38.8125 
Q 15.578125 40.375 12.03125 44.71875 
Q 8.5 49.078125 8.5 55.328125 
Q 8.5 64.0625 14.71875 69.140625 
Q 20.953125 74.21875 31.78125 74.21875 
Q 42.671875 74.21875 48.875 69.140625 
Q 55.078125 64.0625 55.078125 55.328125 
Q 55.078125 49.078125 51.53125 44.71875 
Q 48 40.375 41.703125 38.8125 
Q 48.828125 37.15625 52.796875 32.3125 
Q 56.78125 27.484375 56.78125 20.515625 
Q 56.78125 9.90625 50.3125 4.234375 
Q 43.84375 -1.421875 31.78125 -1.421875 
Q 19.734375 -1.421875 13.25 4.234375 
Q 6.78125 9.90625 6.78125 20.515625 
Q 6.78125 27.484375 10.78125 32.3125 
Q 14.796875 37.15625 21.921875 38.8125 
z
M 18.3125 54.390625 
Q 18.3125 48.734375 21.84375 45.5625 
Q 25.390625 42.390625 31.78125 42.390625 
Q 38.140625 42.390625 41.71875 45.5625 
Q 45.3125 48.734375 45.3125 54.390625 
Q 45.3125 60.0625 41.71875 63.234375 
Q 38.140625 66.40625 31.78125 66.40625 
Q 25.390625 66.40625 21.84375 63.234375 
Q 18.3125 60.0625 18.3125 54.390625 
z
" id="DejaVuSans-56"/>
       </defs>
       <use xlink:href="#DejaVuSans-48"/>
       <use x="63.623047" xlink:href="#DejaVuSans-54"/>
       <use x="127.246094" xlink:href="#DejaVuSans-58"/>
       <use x="160.9375" xlink:href="#DejaVuSans-53"/>
       <use x="224.560547" xlink:href="#DejaVuSans-56"/>
       <use x="288.183594" xlink:href="#DejaVuSans-58"/>
       <use x="321.875" xlink:href="#DejaVuSans-48"/>
       <use x="385.498047" xlink:href="#DejaVuSans-48"/>
      </g>
     </g>
    </g>
    <g id="xtick_10">
     <g id="line2d_10">
      <g>
       <use style="stroke:#000000;stroke-width:0.8;" x="1373.54381" xlink:href="#mf4fd56ec9a" y="512.64"/>
      </g>
     </g>
     <g id="text_10">
      <!-- 07:55:00 -->
      <g transform="translate(1351.08756 527.238438)scale(0.1 -0.1)">
       <use xlink:href="#DejaVuSans-48"/>
       <use x="63.623047" xlink:href="#DejaVuSans-55"/>
       <use x="127.246094" xlink:href="#DejaVuSans-58"/>
       <use x="160.9375" xlink:href="#DejaVuSans-53"/>
       <use x="224.560547" xlink:href="#DejaVuSans-53"/>
       <use x="288.183594" xlink:href="#DejaVuSans-58"/>
       <use x="321.875" xlink:href="#DejaVuSans-48"/>
       <use x="385.498047" xlink:href="#DejaVuSans-48"/>
      </g>
     </g>
    </g>
    <g id="text_11">
     <!-- Sleep Time -->
     <g transform="translate(857.886719 540.916563)scale(0.1 -0.1)">
      <defs>
       <path d="M 53.515625 70.515625 
L 53.515625 60.890625 
Q 47.90625 63.578125 42.921875 64.890625 
Q 37.9375 66.21875 33.296875 66.21875 
Q 25.25 66.21875 20.875 63.09375 
Q 16.5 59.96875 16.5 54.203125 
Q 16.5 49.359375 19.40625 46.890625 
Q 22.3125 44.4375 30.421875 42.921875 
L 36.375 41.703125 
Q 47.40625 39.59375 52.65625 34.296875 
Q 57.90625 29 57.90625 20.125 
Q 57.90625 9.515625 50.796875 4.046875 
Q 43.703125 -1.421875 29.984375 -1.421875 
Q 24.8125 -1.421875 18.96875 -0.25 
Q 13.140625 0.921875 6.890625 3.21875 
L 6.890625 13.375 
Q 12.890625 10.015625 18.65625 8.296875 
Q 24.421875 6.59375 29.984375 6.59375 
Q 38.421875 6.59375 43.015625 9.90625 
Q 47.609375 13.234375 47.609375 19.390625 
Q 47.609375 24.75 44.3125 27.78125 
Q 41.015625 30.8125 33.5 32.328125 
L 27.484375 33.5 
Q 16.453125 35.6875 11.515625 40.375 
Q 6.59375 45.0625 6.59375 53.421875 
Q 6.59375 63.09375 13.40625 68.65625 
Q 20.21875 74.21875 32.171875 74.21875 
Q 37.3125 74.21875 42.625 73.28125 
Q 47.953125 72.359375 53.515625 70.515625 
z
" id="DejaVuSans-83"/>
       <path d="M 9.421875 75.984375 
L 18.40625 75.984375 
L 18.40625 0 
L 9.421875 0 
z
" id="DejaVuSans-108"/>
       <path d="M 56.203125 29.59375 
L 56.203125 25.203125 
L 14.890625 25.203125 
Q 15.484375 15.921875 20.484375 11.0625 
Q 25.484375 6.203125 34.421875 6.203125 
Q 39.59375 6.203125 44.453125 7.46875 
Q 49.3125 8.734375 54.109375 11.28125 
L 54.109375 2.78125 
Q 49.265625 0.734375 44.1875 -0.34375 
Q 39.109375 -1.421875 33.890625 -1.421875 
Q 20.796875 -1.421875 13.15625 6.1875 
Q 5.515625 13.8125 5.515625 26.8125 
Q 5.515625 40.234375 12.765625 48.109375 
Q 20.015625 56 32.328125 56 
Q 43.359375 56 49.78125 48.890625 
Q 56.203125 41.796875 56.203125 29.59375 
z
M 47.21875 32.234375 
Q 47.125 39.59375 43.09375 43.984375 
Q 39.0625 48.390625 32.421875 48.390625 
Q 24.90625 48.390625 20.390625 44.140625 
Q 15.875 39.890625 15.1875 32.171875 
z
" id="DejaVuSans-101"/>
       <path d="M 18.109375 8.203125 
L 18.109375 -20.796875 
L 9.078125 -20.796875 
L 9.078125 54.6875 
L 18.109375 54.6875 
L 18.109375 46.390625 
Q 20.953125 51.265625 25.265625 53.625 
Q 29.59375 56 35.59375 56 
Q 45.5625 56 51.78125 48.09375 
Q 58.015625 40.1875 58.015625 27.296875 
Q 58.015625 14.40625 51.78125 6.484375 
Q 45.5625 -1.421875 35.59375 -1.421875 
Q 29.59375 -1.421875 25.265625 0.953125 
Q 20.953125 3.328125 18.109375 8.203125 
z
M 48.6875 27.296875 
Q 48.6875 37.203125 44.609375 42.84375 
Q 40.53125 48.484375 33.40625 48.484375 
Q 26.265625 48.484375 22.1875 42.84375 
Q 18.109375 37.203125 18.109375 27.296875 
Q 18.109375 17.390625 22.1875 11.75 
Q 26.265625 6.109375 33.40625 6.109375 
Q 40.53125 6.109375 44.609375 11.75 
Q 48.6875 17.390625 48.6875 27.296875 
z
" id="DejaVuSans-112"/>
       <path id="DejaVuSans-32"/>
       <path d="M -0.296875 72.90625 
L 61.375 72.90625 
L 61.375 64.59375 
L 35.5 64.59375 
L 35.5 0 
L 25.59375 0 
L 25.59375 64.59375 
L -0.296875 64.59375 
z
" id="DejaVuSans-84"/>
       <path d="M 9.421875 54.6875 
L 18.40625 54.6875 
L 18.40625 0 
L 9.421875 0 
z
M 9.421875 75.984375 
L 18.40625 75.984375 
L 18.40625 64.59375 
L 9.421875 64.59375 
z
" id="DejaVuSans-105"/>
       <path d="M 52 44.1875 
Q 55.375 50.25 60.0625 53.125 
Q 64.75 56 71.09375 56 
Q 79.640625 56 84.28125 50.015625 
Q 88.921875 44.046875 88.921875 33.015625 
L 88.921875 0 
L 79.890625 0 
L 79.890625 32.71875 
Q 79.890625 40.578125 77.09375 44.375 
Q 74.3125 48.1875 68.609375 48.1875 
Q 61.625 48.1875 57.5625 43.546875 
Q 53.515625 38.921875 53.515625 30.90625 
L 53.515625 0 
L 44.484375 0 
L 44.484375 32.71875 
Q 44.484375 40.625 41.703125 44.40625 
Q 38.921875 48.1875 33.109375 48.1875 
Q 26.21875 48.1875 22.15625 43.53125 
Q 18.109375 38.875 18.109375 30.90625 
L 18.109375 0 
L 9.078125 0 
L 9.078125 54.6875 
L 18.109375 54.6875 
L 18.109375 46.1875 
Q 21.1875 51.21875 25.484375 53.609375 
Q 29.78125 56 35.6875 56 
Q 41.65625 56 45.828125 52.96875 
Q 50 49.953125 52 44.1875 
z
" id="DejaVuSans-109"/>
      </defs>
      <use xlink:href="#DejaVuSans-83"/>
      <use x="63.476562" xlink:href="#DejaVuSans-108"/>
      <use x="91.259766" xlink:href="#DejaVuSans-101"/>
      <use x="152.783203" xlink:href="#DejaVuSans-101"/>
      <use x="214.306641" xlink:href="#DejaVuSans-112"/>
      <use x="277.783203" xlink:href="#DejaVuSans-32"/>
      <use x="309.570312" xlink:href="#DejaVuSans-84"/>
      <use x="367.529297" xlink:href="#DejaVuSans-105"/>
      <use x="395.3125" xlink:href="#DejaVuSans-109"/>
      <use x="492.724609" xlink:href="#DejaVuSans-101"/>
     </g>
    </g>
   </g>
   <g id="matplotlib.axis_2">
    <g id="ytick_1">
     <g id="line2d_11">
      <defs>
       <path d="M 0 0 
L -3.5 0 
" id="m677392603a" style="stroke:#000000;stroke-width:0.8;"/>
      </defs>
      <g>
       <use style="stroke:#000000;stroke-width:0.8;" x="216" xlink:href="#m677392603a" y="492.48"/>
      </g>
     </g>
     <g id="text_12">
      <!-- W -->
      <g transform="translate(199.1125 496.279219)scale(0.1 -0.1)">
       <defs>
        <path d="M 3.328125 72.90625 
L 13.28125 72.90625 
L 28.609375 11.28125 
L 43.890625 72.90625 
L 54.984375 72.90625 
L 70.3125 11.28125 
L 85.59375 72.90625 
L 95.609375 72.90625 
L 77.296875 0 
L 64.890625 0 
L 49.515625 63.28125 
L 33.984375 0 
L 21.578125 0 
z
" id="DejaVuSans-87"/>
       </defs>
       <use xlink:href="#DejaVuSans-87"/>
      </g>
     </g>
    </g>
    <g id="ytick_2">
     <g id="line2d_12">
      <g>
       <use style="stroke:#000000;stroke-width:0.8;" x="216" xlink:href="#m677392603a" y="391.68"/>
      </g>
     </g>
     <g id="text_13">
      <!-- REM -->
      <g transform="translate(187.104688 395.479219)scale(0.1 -0.1)">
       <defs>
        <path d="M 44.390625 34.1875 
Q 47.5625 33.109375 50.5625 29.59375 
Q 53.5625 26.078125 56.59375 19.921875 
L 66.609375 0 
L 56 0 
L 46.6875 18.703125 
Q 43.0625 26.03125 39.671875 28.421875 
Q 36.28125 30.8125 30.421875 30.8125 
L 19.671875 30.8125 
L 19.671875 0 
L 9.8125 0 
L 9.8125 72.90625 
L 32.078125 72.90625 
Q 44.578125 72.90625 50.734375 67.671875 
Q 56.890625 62.453125 56.890625 51.90625 
Q 56.890625 45.015625 53.6875 40.46875 
Q 50.484375 35.9375 44.390625 34.1875 
z
M 19.671875 64.796875 
L 19.671875 38.921875 
L 32.078125 38.921875 
Q 39.203125 38.921875 42.84375 42.21875 
Q 46.484375 45.515625 46.484375 51.90625 
Q 46.484375 58.296875 42.84375 61.546875 
Q 39.203125 64.796875 32.078125 64.796875 
z
" id="DejaVuSans-82"/>
        <path d="M 9.8125 72.90625 
L 55.90625 72.90625 
L 55.90625 64.59375 
L 19.671875 64.59375 
L 19.671875 43.015625 
L 54.390625 43.015625 
L 54.390625 34.71875 
L 19.671875 34.71875 
L 19.671875 8.296875 
L 56.78125 8.296875 
L 56.78125 0 
L 9.8125 0 
z
" id="DejaVuSans-69"/>
        <path d="M 9.8125 72.90625 
L 24.515625 72.90625 
L 43.109375 23.296875 
L 61.8125 72.90625 
L 76.515625 72.90625 
L 76.515625 0 
L 66.890625 0 
L 66.890625 64.015625 
L 48.09375 14.015625 
L 38.1875 14.015625 
L 19.390625 64.015625 
L 19.390625 0 
L 9.8125 0 
z
" id="DejaVuSans-77"/>
       </defs>
       <use xlink:href="#DejaVuSans-82"/>
       <use x="69.482422" xlink:href="#DejaVuSans-69"/>
       <use x="132.666016" xlink:href="#DejaVuSans-77"/>
      </g>
     </g>
    </g>
    <g id="ytick_3">
     <g id="line2d_13">
      <g>
       <use style="stroke:#000000;stroke-width:0.8;" x="216" xlink:href="#m677392603a" y="290.88"/>
      </g>
     </g>
     <g id="text_14">
      <!-- N1 -->
      <g transform="translate(195.15625 294.679219)scale(0.1 -0.1)">
       <defs>
        <path d="M 9.8125 72.90625 
L 23.09375 72.90625 
L 55.421875 11.921875 
L 55.421875 72.90625 
L 64.984375 72.90625 
L 64.984375 0 
L 51.703125 0 
L 19.390625 60.984375 
L 19.390625 0 
L 9.8125 0 
z
" id="DejaVuSans-78"/>
       </defs>
       <use xlink:href="#DejaVuSans-78"/>
       <use x="74.804688" xlink:href="#DejaVuSans-49"/>
      </g>
     </g>
    </g>
    <g id="ytick_4">
     <g id="line2d_14">
      <g>
       <use style="stroke:#000000;stroke-width:0.8;" x="216" xlink:href="#m677392603a" y="190.08"/>
      </g>
     </g>
     <g id="text_15">
      <!-- N2 -->
      <g transform="translate(195.15625 193.879219)scale(0.1 -0.1)">
       <use xlink:href="#DejaVuSans-78"/>
       <use x="74.804688" xlink:href="#DejaVuSans-50"/>
      </g>
     </g>
    </g>
    <g id="ytick_5">
     <g id="line2d_15">
      <g>
       <use style="stroke:#000000;stroke-width:0.8;" x="216" xlink:href="#m677392603a" y="89.28"/>
      </g>
     </g>
     <g id="text_16">
      <!-- N3 -->
      <g transform="translate(195.15625 93.079219)scale(0.1 -0.1)">
       <use xlink:href="#DejaVuSans-78"/>
       <use x="74.804688" xlink:href="#DejaVuSans-51"/>
      </g>
     </g>
    </g>
    <g id="text_17">
     <!-- Sleep Stage -->
     <g transform="translate(181.025 320.808906)rotate(-90)scale(0.1 -0.1)">
      <defs>
       <path d="M 18.3125 70.21875 
L 18.3125 54.6875 
L 36.8125 54.6875 
L 36.8125 47.703125 
L 18.3125 47.703125 
L 18.3125 18.015625 
Q 18.3125 11.328125 20.140625 9.421875 
Q 21.96875 7.515625 27.59375 7.515625 
L 36.8125 7.515625 
L 36.8125 0 
L 27.59375 0 
Q 17.1875 0 13.234375 3.875 
Q 9.28125 7.765625 9.28125 18.015625 
L 9.28125 47.703125 
L 2.6875 47.703125 
L 2.6875 54.6875 
L 9.28125 54.6875 
L 9.28125 70.21875 
z
" id="DejaVuSans-116"/>
       <path d="M 34.28125 27.484375 
Q 23.390625 27.484375 19.1875 25 
Q 14.984375 22.515625 14.984375 16.5 
Q 14.984375 11.71875 18.140625 8.90625 
Q 21.296875 6.109375 26.703125 6.109375 
Q 34.1875 6.109375 38.703125 11.40625 
Q 43.21875 16.703125 43.21875 25.484375 
L 43.21875 27.484375 
z
M 52.203125 31.203125 
L 52.203125 0 
L 43.21875 0 
L 43.21875 8.296875 
Q 40.140625 3.328125 35.546875 0.953125 
Q 30.953125 -1.421875 24.3125 -1.421875 
Q 15.921875 -1.421875 10.953125 3.296875 
Q 6 8.015625 6 15.921875 
Q 6 25.140625 12.171875 29.828125 
Q 18.359375 34.515625 30.609375 34.515625 
L 43.21875 34.515625 
L 43.21875 35.40625 
Q 43.21875 41.609375 39.140625 45 
Q 35.0625 48.390625 27.6875 48.390625 
Q 23 48.390625 18.546875 47.265625 
Q 14.109375 46.140625 10.015625 43.890625 
L 10.015625 52.203125 
Q 14.9375 54.109375 19.578125 55.046875 
Q 24.21875 56 28.609375 56 
Q 40.484375 56 46.34375 49.84375 
Q 52.203125 43.703125 52.203125 31.203125 
z
" id="DejaVuSans-97"/>
       <path d="M 45.40625 27.984375 
Q 45.40625 37.75 41.375 43.109375 
Q 37.359375 48.484375 30.078125 48.484375 
Q 22.859375 48.484375 18.828125 43.109375 
Q 14.796875 37.75 14.796875 27.984375 
Q 14.796875 18.265625 18.828125 12.890625 
Q 22.859375 7.515625 30.078125 7.515625 
Q 37.359375 7.515625 41.375 12.890625 
Q 45.40625 18.265625 45.40625 27.984375 
z
M 54.390625 6.78125 
Q 54.390625 -7.171875 48.1875 -13.984375 
Q 42 -20.796875 29.203125 -20.796875 
Q 24.46875 -20.796875 20.265625 -20.09375 
Q 16.0625 -19.390625 12.109375 -17.921875 
L 12.109375 -9.1875 
Q 16.0625 -11.328125 19.921875 -12.34375 
Q 23.78125 -13.375 27.78125 -13.375 
Q 36.625 -13.375 41.015625 -8.765625 
Q 45.40625 -4.15625 45.40625 5.171875 
L 45.40625 9.625 
Q 42.625 4.78125 38.28125 2.390625 
Q 33.9375 0 27.875 0 
Q 17.828125 0 11.671875 7.65625 
Q 5.515625 15.328125 5.515625 27.984375 
Q 5.515625 40.671875 11.671875 48.328125 
Q 17.828125 56 27.875 56 
Q 33.9375 56 38.28125 53.609375 
Q 42.625 51.21875 45.40625 46.390625 
L 45.40625 54.6875 
L 54.390625 54.6875 
z
" id="DejaVuSans-103"/>
      </defs>
      <use xlink:href="#DejaVuSans-83"/>
      <use x="63.476562" xlink:href="#DejaVuSans-108"/>
      <use x="91.259766" xlink:href="#DejaVuSans-101"/>
      <use x="152.783203" xlink:href="#DejaVuSans-101"/>
      <use x="214.306641" xlink:href="#DejaVuSans-112"/>
      <use x="277.783203" xlink:href="#DejaVuSans-32"/>
      <use x="309.570312" xlink:href="#DejaVuSans-83"/>
      <use x="373.046875" xlink:href="#DejaVuSans-116"/>
      <use x="412.255859" xlink:href="#DejaVuSans-97"/>
      <use x="473.535156" xlink:href="#DejaVuSans-103"/>
      <use x="537.011719" xlink:href="#DejaVuSans-101"/>
     </g>
    </g>
   </g>
   <g id="line2d_16">
    <path clip-path="url(#pa7a66dc74d)" d="M 276.872727 492.48 
L 332.454498 492.48 
L 333.523378 391.68 
L 334.592258 492.48 
L 335.661138 391.68 
L 336.730018 492.48 
L 342.074419 492.48 
L 343.1433 391.68 
L 346.34994 391.68 
L 347.41882 190.08 
L 353.832102 190.08 
L 354.900982 391.68 
L 355.969862 190.08 
L 369.865304 190.08 
L 370.934185 89.28 
L 373.071945 89.28 
L 374.140825 190.08 
L 375.209705 89.28 
L 378.416346 89.28 
L 379.485226 190.08 
L 380.554106 89.28 
L 386.967388 89.28 
L 388.036268 190.08 
L 389.105148 89.28 
L 410.482752 89.28 
L 412.620512 290.88 
L 413.689393 492.48 
L 414.758273 492.48 
L 415.827153 190.08 
L 416.896033 190.08 
L 417.964913 492.48 
L 419.033794 492.48 
L 420.102674 391.68 
L 421.171554 190.08 
L 422.240434 391.68 
L 423.309314 190.08 
L 424.378195 391.68 
L 425.447075 391.68 
L 426.515955 190.08 
L 429.722596 190.08 
L 430.791476 391.68 
L 431.860356 391.68 
L 432.929236 492.48 
L 433.998116 492.48 
L 435.066997 391.68 
L 436.135877 190.08 
L 443.618038 190.08 
L 444.686918 391.68 
L 445.755799 190.08 
L 470.340043 190.08 
L 471.408923 89.28 
L 473.546684 89.28 
L 474.615564 190.08 
L 475.684444 89.28 
L 476.753324 190.08 
L 477.822204 89.28 
L 482.097725 89.28 
L 484.235486 290.88 
L 485.304366 190.08 
L 487.442126 190.08 
L 488.511006 391.68 
L 489.579887 190.08 
L 503.475329 190.08 
L 504.544209 391.68 
L 505.61309 190.08 
L 509.88861 190.08 
L 510.957491 290.88 
L 512.026371 190.08 
L 517.370772 190.08 
L 518.439652 391.68 
L 519.508532 190.08 
L 520.577412 391.68 
L 521.646293 190.08 
L 522.715173 391.68 
L 523.784053 190.08 
L 524.852933 391.68 
L 525.921813 391.68 
L 526.990694 190.08 
L 528.059574 391.68 
L 529.128454 492.48 
L 530.197334 391.68 
L 531.266214 391.68 
L 532.335095 190.08 
L 534.472855 190.08 
L 535.541735 391.68 
L 536.610615 190.08 
L 562.26374 190.08 
L 563.33262 89.28 
L 566.539261 89.28 
L 567.608141 190.08 
L 568.677021 89.28 
L 569.745902 190.08 
L 571.883662 190.08 
L 572.952542 89.28 
L 574.021422 190.08 
L 583.641344 190.08 
L 584.710224 89.28 
L 587.916865 89.28 
L 588.985745 190.08 
L 590.054625 89.28 
L 591.123505 190.08 
L 592.192386 492.48 
L 593.261266 190.08 
L 607.156708 190.08 
L 608.225589 89.28 
L 610.363349 89.28 
L 611.432229 190.08 
L 612.501109 89.28 
L 613.56999 190.08 
L 614.63887 391.68 
L 615.70775 492.48 
L 616.77663 391.68 
L 617.84551 391.68 
L 618.914391 290.88 
L 619.983271 492.48 
L 621.052151 190.08 
L 628.534312 190.08 
L 629.603193 492.48 
L 630.672073 190.08 
L 633.878713 190.08 
L 634.947594 391.68 
L 637.085354 190.08 
L 640.291995 190.08 
L 641.360875 391.68 
L 642.429755 492.48 
L 646.705276 492.48 
L 647.774156 391.68 
L 648.843036 492.48 
L 649.911916 492.48 
L 650.980797 391.68 
L 652.049677 391.68 
L 653.118557 190.08 
L 654.187437 492.48 
L 655.256317 290.88 
L 656.325198 190.08 
L 657.394078 492.48 
L 658.462958 492.48 
L 659.531838 391.68 
L 660.600718 190.08 
L 661.669599 492.48 
L 663.807359 492.48 
L 664.876239 391.68 
L 669.15176 391.68 
L 670.22064 492.48 
L 671.28952 391.68 
L 672.358401 492.48 
L 673.427281 391.68 
L 675.565041 391.68 
L 676.633921 492.48 
L 677.702802 391.68 
L 679.840562 391.68 
L 680.909442 190.08 
L 681.978322 492.48 
L 685.184963 492.48 
L 686.253843 391.68 
L 688.391603 391.68 
L 689.460484 492.48 
L 692.667124 492.48 
L 693.736004 391.68 
L 695.873765 391.68 
L 696.942645 190.08 
L 698.011525 391.68 
L 699.080405 492.48 
L 702.287046 492.48 
L 703.355926 391.68 
L 705.493687 391.68 
L 706.562567 190.08 
L 710.838088 190.08 
L 711.906968 391.68 
L 712.975848 190.08 
L 714.044728 391.68 
L 715.113608 190.08 
L 722.59577 190.08 
L 723.66465 391.68 
L 724.73353 190.08 
L 727.940171 190.08 
L 729.009051 391.68 
L 730.077931 492.48 
L 731.146811 492.48 
L 732.215692 190.08 
L 733.284572 190.08 
L 734.353452 391.68 
L 735.422332 391.68 
L 736.491212 190.08 
L 737.560093 190.08 
L 738.628973 391.68 
L 739.697853 190.08 
L 740.766733 391.68 
L 741.835613 190.08 
L 752.524415 190.08 
L 753.593296 391.68 
L 754.662176 190.08 
L 765.350978 190.08 
L 766.419858 391.68 
L 767.488738 190.08 
L 784.590821 190.08 
L 785.659701 89.28 
L 787.797462 89.28 
L 788.866342 190.08 
L 789.935222 89.28 
L 791.004102 89.28 
L 792.072983 190.08 
L 793.141863 492.48 
L 794.210743 190.08 
L 815.588347 190.08 
L 816.657227 391.68 
L 857.274675 391.68 
L 858.343555 190.08 
L 862.619076 190.08 
L 863.687956 391.68 
L 864.756836 190.08 
L 865.825716 391.68 
L 866.894597 190.08 
L 882.9278 190.08 
L 883.99668 492.48 
L 885.06556 190.08 
L 897.892122 190.08 
L 898.961002 89.28 
L 916.063086 89.28 
L 917.131966 190.08 
L 918.200846 89.28 
L 943.853971 89.28 
L 944.922851 190.08 
L 947.060611 190.08 
L 948.129492 391.68 
L 949.198372 492.48 
L 950.267252 190.08 
L 956.680533 190.08 
L 957.749413 290.88 
L 958.818294 190.08 
L 971.644856 190.08 
L 972.713736 391.68 
L 997.297981 391.68 
L 998.366861 492.48 
L 999.435741 391.68 
L 1012.262303 391.68 
L 1013.331184 492.48 
L 1014.400064 391.68 
L 1019.744465 391.68 
L 1020.813345 190.08 
L 1021.882225 391.68 
L 1058.224152 391.68 
L 1059.293032 190.08 
L 1141.596807 190.08 
L 1142.665688 492.48 
L 1143.734568 290.88 
L 1144.803448 190.08 
L 1148.010089 190.08 
L 1149.078969 391.68 
L 1187.558656 391.68 
L 1188.627536 89.28 
L 1189.696416 492.48 
L 1190.765297 391.68 
L 1193.971937 391.68 
L 1195.040817 190.08 
L 1197.178578 190.08 
L 1198.247458 391.68 
L 1200.385218 391.68 
L 1201.454098 190.08 
L 1202.522979 391.68 
L 1203.591859 391.68 
L 1204.660739 190.08 
L 1205.729619 190.08 
L 1206.798499 391.68 
L 1207.86738 190.08 
L 1210.00514 190.08 
L 1211.07402 391.68 
L 1212.1429 190.08 
L 1216.418421 190.08 
L 1217.487301 492.48 
L 1218.556182 391.68 
L 1219.625062 391.68 
L 1220.693942 190.08 
L 1221.762822 391.68 
L 1222.831702 391.68 
L 1223.900583 190.08 
L 1224.969463 492.48 
L 1226.038343 391.68 
L 1227.107223 391.68 
L 1228.176103 492.48 
L 1229.244984 492.48 
L 1230.313864 391.68 
L 1231.382744 492.48 
L 1233.520504 492.48 
L 1234.589385 391.68 
L 1235.658265 391.68 
L 1236.727145 190.08 
L 1237.796025 391.68 
L 1238.864905 391.68 
L 1239.933786 190.08 
L 1241.002666 391.68 
L 1242.071546 492.48 
L 1243.140426 391.68 
L 1244.209306 391.68 
L 1245.278187 190.08 
L 1248.484827 190.08 
L 1249.553707 492.48 
L 1250.622588 492.48 
L 1251.691468 190.08 
L 1253.829228 190.08 
L 1254.898108 391.68 
L 1255.966989 492.48 
L 1257.035869 391.68 
L 1258.104749 391.68 
L 1259.173629 190.08 
L 1260.242509 391.68 
L 1263.44915 391.68 
L 1264.51803 190.08 
L 1265.58691 391.68 
L 1266.655791 492.48 
L 1267.724671 492.48 
L 1268.793551 391.68 
L 1270.931311 391.68 
L 1272.000192 492.48 
L 1273.069072 492.48 
L 1274.137952 391.68 
L 1275.206832 492.48 
L 1276.275712 492.48 
L 1277.344593 391.68 
L 1286.964514 391.68 
L 1288.033395 290.88 
L 1289.102275 492.48 
L 1290.171155 492.48 
L 1291.240035 391.68 
L 1292.308915 190.08 
L 1293.377796 492.48 
L 1294.446676 391.68 
L 1297.653316 391.68 
L 1298.722197 190.08 
L 1299.791077 492.48 
L 1300.859957 492.48 
L 1301.928837 391.68 
L 1305.135478 391.68 
L 1306.204358 492.48 
L 1307.273238 492.48 
L 1308.342118 391.68 
L 1311.548759 391.68 
L 1312.617639 190.08 
L 1313.686519 492.48 
L 1314.755399 492.48 
L 1315.82428 391.68 
L 1316.89316 492.48 
L 1319.03092 492.48 
L 1320.0998 89.28 
L 1321.168681 492.48 
L 1494.327273 492.48 
L 1494.327273 492.48 
" style="fill:none;stroke:#0000ff;stroke-linecap:square;"/>
   </g>
   <g id="line2d_17">
    <path clip-path="url(#pa7a66dc74d)" d="M 276.872727 492.48 
L 338.867779 492.48 
L 339.936659 290.88 
L 346.34994 290.88 
L 347.41882 190.08 
L 353.832102 190.08 
L 354.900982 290.88 
L 355.969862 190.08 
L 365.589784 190.08 
L 366.658664 89.28 
L 412.620512 89.28 
L 413.689393 290.88 
L 414.758273 190.08 
L 417.964913 190.08 
L 419.033794 290.88 
L 421.171554 290.88 
L 422.240434 190.08 
L 432.929236 190.08 
L 433.998116 290.88 
L 435.066997 190.08 
L 460.720121 190.08 
L 461.789002 89.28 
L 462.857882 89.28 
L 463.926762 190.08 
L 464.995642 190.08 
L 466.064522 89.28 
L 486.373246 89.28 
L 487.442126 190.08 
L 495.993168 190.08 
L 497.062048 89.28 
L 498.130928 89.28 
L 499.199808 190.08 
L 500.268689 89.28 
L 501.337569 290.88 
L 502.406449 190.08 
L 503.475329 290.88 
L 504.544209 290.88 
L 505.61309 190.08 
L 507.75085 190.08 
L 508.81973 89.28 
L 510.957491 290.88 
L 513.095251 89.28 
L 514.164131 89.28 
L 515.233011 190.08 
L 516.301892 89.28 
L 517.370772 89.28 
L 518.439652 190.08 
L 528.059574 190.08 
L 529.128454 492.48 
L 530.197334 290.88 
L 531.266214 190.08 
L 534.472855 190.08 
L 535.541735 290.88 
L 536.610615 290.88 
L 537.679496 190.08 
L 556.919339 190.08 
L 557.988219 89.28 
L 569.745902 89.28 
L 570.814782 290.88 
L 572.952542 89.28 
L 574.021422 89.28 
L 575.090302 290.88 
L 576.159183 190.08 
L 582.572464 190.08 
L 583.641344 89.28 
L 592.192386 89.28 
L 593.261266 190.08 
L 594.330146 89.28 
L 595.399026 190.08 
L 598.605667 190.08 
L 599.674547 290.88 
L 600.743427 190.08 
L 606.087828 190.08 
L 607.156708 89.28 
L 613.56999 89.28 
L 614.63887 492.48 
L 615.70775 492.48 
L 616.77663 290.88 
L 617.84551 190.08 
L 618.914391 290.88 
L 619.983271 290.88 
L 621.052151 190.08 
L 623.189911 190.08 
L 624.258792 290.88 
L 625.327672 190.08 
L 628.534312 190.08 
L 629.603193 492.48 
L 630.672073 290.88 
L 631.740953 190.08 
L 633.878713 190.08 
L 634.947594 290.88 
L 636.016474 190.08 
L 640.291995 190.08 
L 641.360875 290.88 
L 642.429755 492.48 
L 649.911916 492.48 
L 650.980797 290.88 
L 653.118557 290.88 
L 654.187437 190.08 
L 657.394078 190.08 
L 658.462958 290.88 
L 659.531838 290.88 
L 660.600718 190.08 
L 661.669599 492.48 
L 702.287046 492.48 
L 703.355926 290.88 
L 705.493687 290.88 
L 706.562567 190.08 
L 712.975848 190.08 
L 714.044728 290.88 
L 715.113608 190.08 
L 722.59577 190.08 
L 723.66465 290.88 
L 724.73353 190.08 
L 727.940171 190.08 
L 729.009051 492.48 
L 730.077931 492.48 
L 731.146811 290.88 
L 732.215692 190.08 
L 765.350978 190.08 
L 766.419858 290.88 
L 767.488738 190.08 
L 768.557618 290.88 
L 769.626499 190.08 
L 777.10866 190.08 
L 778.17754 89.28 
L 791.004102 89.28 
L 792.072983 290.88 
L 793.141863 290.88 
L 794.210743 190.08 
L 795.279623 290.88 
L 796.348503 190.08 
L 799.555144 190.08 
L 800.624024 290.88 
L 801.692904 190.08 
L 805.968425 190.08 
L 807.037305 89.28 
L 808.106186 89.28 
L 809.175066 190.08 
L 816.657227 190.08 
L 817.726107 391.68 
L 858.343555 391.68 
L 859.412435 190.08 
L 867.963477 190.08 
L 869.032357 290.88 
L 870.101237 190.08 
L 882.9278 190.08 
L 883.99668 290.88 
L 885.06556 190.08 
L 892.547721 190.08 
L 893.616601 89.28 
L 948.129492 89.28 
L 949.198372 492.48 
L 950.267252 290.88 
L 951.336132 190.08 
L 956.680533 190.08 
L 957.749413 290.88 
L 958.818294 190.08 
L 970.575976 190.08 
L 971.644856 89.28 
L 972.713736 190.08 
L 973.782616 391.68 
L 1012.262303 391.68 
L 1013.331184 492.48 
L 1014.400064 391.68 
L 1058.224152 391.68 
L 1059.293032 190.08 
L 1060.361912 290.88 
L 1061.430793 190.08 
L 1100.97936 190.08 
L 1102.04824 290.88 
L 1103.11712 190.08 
L 1121.288084 190.08 
L 1122.356964 89.28 
L 1123.425844 89.28 
L 1124.494724 190.08 
L 1125.563604 190.08 
L 1126.632485 89.28 
L 1129.839125 89.28 
L 1130.908005 290.88 
L 1131.976886 290.88 
L 1133.045766 190.08 
L 1139.459047 190.08 
L 1140.527927 89.28 
L 1141.596807 190.08 
L 1142.665688 492.48 
L 1143.734568 290.88 
L 1144.803448 190.08 
L 1149.078969 190.08 
L 1150.147849 290.88 
L 1151.216729 190.08 
L 1154.42337 190.08 
L 1155.49225 391.68 
L 1195.040817 391.68 
L 1196.109698 190.08 
L 1201.454098 190.08 
L 1202.522979 290.88 
L 1203.591859 290.88 
L 1204.660739 190.08 
L 1210.00514 190.08 
L 1211.07402 290.88 
L 1212.1429 190.08 
L 1216.418421 190.08 
L 1217.487301 492.48 
L 1218.556182 290.88 
L 1220.693942 290.88 
L 1221.762822 190.08 
L 1223.900583 190.08 
L 1224.969463 492.48 
L 1233.520504 492.48 
L 1234.589385 290.88 
L 1235.658265 290.88 
L 1236.727145 190.08 
L 1238.864905 190.08 
L 1239.933786 290.88 
L 1244.209306 290.88 
L 1245.278187 190.08 
L 1249.553707 190.08 
L 1250.622588 290.88 
L 1251.691468 290.88 
L 1252.760348 190.08 
L 1253.829228 190.08 
L 1254.898108 290.88 
L 1258.104749 290.88 
L 1259.173629 190.08 
L 1265.58691 190.08 
L 1266.655791 492.48 
L 1267.724671 492.48 
L 1268.793551 290.88 
L 1269.862431 290.88 
L 1270.931311 190.08 
L 1272.000192 492.48 
L 1494.327273 492.48 
L 1494.327273 492.48 
" style="fill:none;stroke:#ff0000;stroke-linecap:square;"/>
   </g>
   <g id="patch_3">
    <path d="M 216 512.64 
L 216 69.12 
" style="fill:none;stroke:#000000;stroke-linecap:square;stroke-linejoin:miter;stroke-width:0.8;"/>
   </g>
   <g id="patch_4">
    <path d="M 1555.2 512.64 
L 1555.2 69.12 
" style="fill:none;stroke:#000000;stroke-linecap:square;stroke-linejoin:miter;stroke-width:0.8;"/>
   </g>
   <g id="patch_5">
    <path d="M 216 512.64 
L 1555.2 512.64 
" style="fill:none;stroke:#000000;stroke-linecap:square;stroke-linejoin:miter;stroke-width:0.8;"/>
   </g>
   <g id="patch_6">
    <path d="M 216 69.12 
L 1555.2 69.12 
" style="fill:none;stroke:#000000;stroke-linecap:square;stroke-linejoin:miter;stroke-width:0.8;"/>
   </g>
   <g id="legend_1">
    <g id="patch_7">
     <path d="M 1481.267188 106.47625 
L 1548.2 106.47625 
Q 1550.2 106.47625 1550.2 104.47625 
L 1550.2 76.12 
Q 1550.2 74.12 1548.2 74.12 
L 1481.267188 74.12 
Q 1479.267188 74.12 1479.267188 76.12 
L 1479.267188 104.47625 
Q 1479.267188 106.47625 1481.267188 106.47625 
z
" style="fill:#ffffff;opacity:0.8;stroke:#cccccc;stroke-linejoin:miter;"/>
    </g>
    <g id="line2d_18">
     <path d="M 1483.267188 82.218438 
L 1503.267188 82.218438 
" style="fill:none;stroke:#0000ff;stroke-linecap:square;"/>
    </g>
    <g id="line2d_19"/>
    <g id="text_18">
     <!-- predict -->
     <g transform="translate(1511.267188 85.718438)scale(0.1 -0.1)">
      <defs>
       <path d="M 41.109375 46.296875 
Q 39.59375 47.171875 37.8125 47.578125 
Q 36.03125 48 33.890625 48 
Q 26.265625 48 22.1875 43.046875 
Q 18.109375 38.09375 18.109375 28.8125 
L 18.109375 0 
L 9.078125 0 
L 9.078125 54.6875 
L 18.109375 54.6875 
L 18.109375 46.1875 
Q 20.953125 51.171875 25.484375 53.578125 
Q 30.03125 56 36.53125 56 
Q 37.453125 56 38.578125 55.875 
Q 39.703125 55.765625 41.0625 55.515625 
z
" id="DejaVuSans-114"/>
       <path d="M 45.40625 46.390625 
L 45.40625 75.984375 
L 54.390625 75.984375 
L 54.390625 0 
L 45.40625 0 
L 45.40625 8.203125 
Q 42.578125 3.328125 38.25 0.953125 
Q 33.9375 -1.421875 27.875 -1.421875 
Q 17.96875 -1.421875 11.734375 6.484375 
Q 5.515625 14.40625 5.515625 27.296875 
Q 5.515625 40.1875 11.734375 48.09375 
Q 17.96875 56 27.875 56 
Q 33.9375 56 38.25 53.625 
Q 42.578125 51.265625 45.40625 46.390625 
z
M 14.796875 27.296875 
Q 14.796875 17.390625 18.875 11.75 
Q 22.953125 6.109375 30.078125 6.109375 
Q 37.203125 6.109375 41.296875 11.75 
Q 45.40625 17.390625 45.40625 27.296875 
Q 45.40625 37.203125 41.296875 42.84375 
Q 37.203125 48.484375 30.078125 48.484375 
Q 22.953125 48.484375 18.875 42.84375 
Q 14.796875 37.203125 14.796875 27.296875 
z
" id="DejaVuSans-100"/>
       <path d="M 48.78125 52.59375 
L 48.78125 44.1875 
Q 44.96875 46.296875 41.140625 47.34375 
Q 37.3125 48.390625 33.40625 48.390625 
Q 24.65625 48.390625 19.8125 42.84375 
Q 14.984375 37.3125 14.984375 27.296875 
Q 14.984375 17.28125 19.8125 11.734375 
Q 24.65625 6.203125 33.40625 6.203125 
Q 37.3125 6.203125 41.140625 7.25 
Q 44.96875 8.296875 48.78125 10.40625 
L 48.78125 2.09375 
Q 45.015625 0.34375 40.984375 -0.53125 
Q 36.96875 -1.421875 32.421875 -1.421875 
Q 20.0625 -1.421875 12.78125 6.34375 
Q 5.515625 14.109375 5.515625 27.296875 
Q 5.515625 40.671875 12.859375 48.328125 
Q 20.21875 56 33.015625 56 
Q 37.15625 56 41.109375 55.140625 
Q 45.0625 54.296875 48.78125 52.59375 
z
" id="DejaVuSans-99"/>
      </defs>
      <use xlink:href="#DejaVuSans-112"/>
      <use x="63.476562" xlink:href="#DejaVuSans-114"/>
      <use x="102.339844" xlink:href="#DejaVuSans-101"/>
      <use x="163.863281" xlink:href="#DejaVuSans-100"/>
      <use x="227.339844" xlink:href="#DejaVuSans-105"/>
      <use x="255.123047" xlink:href="#DejaVuSans-99"/>
      <use x="310.103516" xlink:href="#DejaVuSans-116"/>
     </g>
    </g>
    <g id="line2d_20">
     <path d="M 1483.267188 96.896563 
L 1503.267188 96.896563 
" style="fill:none;stroke:#ff0000;stroke-linecap:square;"/>
    </g>
    <g id="line2d_21"/>
    <g id="text_19">
     <!-- label -->
     <g transform="translate(1511.267188 100.396563)scale(0.1 -0.1)">
      <defs>
       <path d="M 48.6875 27.296875 
Q 48.6875 37.203125 44.609375 42.84375 
Q 40.53125 48.484375 33.40625 48.484375 
Q 26.265625 48.484375 22.1875 42.84375 
Q 18.109375 37.203125 18.109375 27.296875 
Q 18.109375 17.390625 22.1875 11.75 
Q 26.265625 6.109375 33.40625 6.109375 
Q 40.53125 6.109375 44.609375 11.75 
Q 48.6875 17.390625 48.6875 27.296875 
z
M 18.109375 46.390625 
Q 20.953125 51.265625 25.265625 53.625 
Q 29.59375 56 35.59375 56 
Q 45.5625 56 51.78125 48.09375 
Q 58.015625 40.1875 58.015625 27.296875 
Q 58.015625 14.40625 51.78125 6.484375 
Q 45.5625 -1.421875 35.59375 -1.421875 
Q 29.59375 -1.421875 25.265625 0.953125 
Q 20.953125 3.328125 18.109375 8.203125 
L 18.109375 0 
L 9.078125 0 
L 9.078125 75.984375 
L 18.109375 75.984375 
z
" id="DejaVuSans-98"/>
      </defs>
      <use xlink:href="#DejaVuSans-108"/>
      <use x="27.783203" xlink:href="#DejaVuSans-97"/>
      <use x="89.0625" xlink:href="#DejaVuSans-98"/>
      <use x="152.539062" xlink:href="#DejaVuSans-101"/>
      <use x="214.0625" xlink:href="#DejaVuSans-108"/>
     </g>
    </g>
   </g>
  </g>
 </g>
 <defs>
  <clipPath id="pa7a66dc74d">
   <rect height="443.52" width="1339.2" x="216" y="69.12"/>
  </clipPath>
 </defs>
</svg>
