<?xml version="1.0" encoding="utf-8" standalone="no"?>
<!DOCTYPE svg PUBLIC "-//W3C//DTD SVG 1.1//EN"
  "http://www.w3.org/Graphics/SVG/1.1/DTD/svg11.dtd">
<!-- Created with matplotlib (https://matplotlib.org/) -->
<svg height="576pt" version="1.1" viewBox="0 0 1080 576" width="1080pt" xmlns="http://www.w3.org/2000/svg" xmlns:xlink="http://www.w3.org/1999/xlink">
 <metadata>
  <rdf:RDF xmlns:cc="http://creativecommons.org/ns#" xmlns:dc="http://purl.org/dc/elements/1.1/" xmlns:rdf="http://www.w3.org/1999/02/22-rdf-syntax-ns#">
   <cc:Work>
    <dc:type rdf:resource="http://purl.org/dc/dcmitype/StillImage"/>
    <dc:date>2020-12-16T00:57:27.651398</dc:date>
    <dc:format>image/svg+xml</dc:format>
    <dc:creator>
     <cc:Agent>
      <dc:title>Matplotlib v3.3.2, https://matplotlib.org/</dc:title>
     </cc:Agent>
    </dc:creator>
   </cc:Work>
  </rdf:RDF>
 </metadata>
 <defs>
  <style type="text/css">*{stroke-linecap:butt;stroke-linejoin:round;}</style>
 </defs>
 <g id="figure_1">
  <g id="patch_1">
   <path d="M 0 576 
L 1080 576 
L 1080 0 
L 0 0 
z
" style="fill:none;"/>
  </g>
  <g id="axes_1">
   <g id="patch_2">
    <path d="M 135 504 
L 972 504 
L 972 69.12 
L 135 69.12 
z
" style="fill:#ffffff;"/>
   </g>
   <g id="patch_3">
    <path clip-path="url(#p0601237a70)" d="M 173.045455 504 
L 187.021336 504 
L 187.021336 120.555203 
L 173.045455 120.555203 
z
" style="fill:#1f77b4;"/>
   </g>
   <g id="patch_4">
    <path clip-path="url(#p0601237a70)" d="M 328.333024 504 
L 342.308905 504 
L 342.308905 105.191887 
L 328.333024 105.191887 
z
" style="fill:#1f77b4;"/>
   </g>
   <g id="patch_5">
    <path clip-path="url(#p0601237a70)" d="M 483.620594 504 
L 497.596475 504 
L 497.596475 130.76469 
L 483.620594 130.76469 
z
" style="fill:#1f77b4;"/>
   </g>
   <g id="patch_6">
    <path clip-path="url(#p0601237a70)" d="M 638.908163 504 
L 652.884045 504 
L 652.884045 137.14562 
L 638.908163 137.14562 
z
" style="fill:#1f77b4;"/>
   </g>
   <g id="patch_7">
    <path clip-path="url(#p0601237a70)" d="M 794.195733 504 
L 808.171614 504 
L 808.171614 152.656188 
L 794.195733 152.656188 
z
" style="fill:#1f77b4;"/>
   </g>
   <g id="patch_8">
    <path clip-path="url(#p0601237a70)" d="M 187.021336 504 
L 200.997217 504 
L 200.997217 140.974178 
L 187.021336 140.974178 
z
" style="fill:#ff7f0e;"/>
   </g>
   <g id="patch_9">
    <path clip-path="url(#p0601237a70)" d="M 342.308905 504 
L 356.284787 504 
L 356.284787 135.869434 
L 342.308905 135.869434 
z
" style="fill:#ff7f0e;"/>
   </g>
   <g id="patch_10">
    <path clip-path="url(#p0601237a70)" d="M 497.596475 504 
L 511.572356 504 
L 511.572356 187.015041 
L 497.596475 187.015041 
z
" style="fill:#ff7f0e;"/>
   </g>
   <g id="patch_11">
    <path clip-path="url(#p0601237a70)" d="M 652.884045 504 
L 666.859926 504 
L 666.859926 193.98498 
L 652.884045 193.98498 
z
" style="fill:#ff7f0e;"/>
   </g>
   <g id="patch_12">
    <path clip-path="url(#p0601237a70)" d="M 808.171614 504 
L 822.147495 504 
L 822.147495 188.831152 
L 808.171614 188.831152 
z
" style="fill:#ff7f0e;"/>
   </g>
   <g id="patch_13">
    <path clip-path="url(#p0601237a70)" d="M 200.997217 504 
L 214.973098 504 
L 214.973098 120.555203 
L 200.997217 120.555203 
z
" style="fill:#2ca02c;"/>
   </g>
   <g id="patch_14">
    <path clip-path="url(#p0601237a70)" d="M 356.284787 504 
L 370.260668 504 
L 370.260668 151.183666 
L 356.284787 151.183666 
z
" style="fill:#2ca02c;"/>
   </g>
   <g id="patch_15">
    <path clip-path="url(#p0601237a70)" d="M 511.572356 504 
L 525.548237 504 
L 525.548237 146.078922 
L 511.572356 146.078922 
z
" style="fill:#2ca02c;"/>
   </g>
   <g id="patch_16">
    <path clip-path="url(#p0601237a70)" d="M 666.859926 504 
L 680.835807 504 
L 680.835807 157.810016 
L 666.859926 157.810016 
z
" style="fill:#2ca02c;"/>
   </g>
   <g id="patch_17">
    <path clip-path="url(#p0601237a70)" d="M 822.147495 504 
L 836.123377 504 
L 836.123377 204.341719 
L 822.147495 204.341719 
z
" style="fill:#2ca02c;"/>
   </g>
   <g id="patch_18">
    <path clip-path="url(#p0601237a70)" d="M 214.973098 504 
L 228.94898 504 
L 228.94898 115.401375 
L 214.973098 115.401375 
z
" style="fill:#d62728;"/>
   </g>
   <g id="patch_19">
    <path clip-path="url(#p0601237a70)" d="M 370.260668 504 
L 384.236549 504 
L 384.236549 110.296631 
L 370.260668 110.296631 
z
" style="fill:#d62728;"/>
   </g>
   <g id="patch_20">
    <path clip-path="url(#p0601237a70)" d="M 525.548237 504 
L 539.524119 504 
L 539.524119 130.76469 
L 525.548237 130.76469 
z
" style="fill:#d62728;"/>
   </g>
   <g id="patch_21">
    <path clip-path="url(#p0601237a70)" d="M 680.835807 504 
L 694.811688 504 
L 694.811688 126.837964 
L 680.835807 126.837964 
z
" style="fill:#d62728;"/>
   </g>
   <g id="patch_22">
    <path clip-path="url(#p0601237a70)" d="M 836.123377 504 
L 850.099258 504 
L 850.099258 147.50236 
L 836.123377 147.50236 
z
" style="fill:#d62728;"/>
   </g>
   <g id="patch_23">
    <path clip-path="url(#p0601237a70)" d="M 228.94898 504 
L 242.924861 504 
L 242.924861 89.828571 
L 228.94898 89.828571 
z
" style="fill:#9467bd;"/>
   </g>
   <g id="patch_24">
    <path clip-path="url(#p0601237a70)" d="M 384.236549 504 
L 398.21243 504 
L 398.21243 125.659947 
L 384.236549 125.659947 
z
" style="fill:#9467bd;"/>
   </g>
   <g id="patch_25">
    <path clip-path="url(#p0601237a70)" d="M 539.524119 504 
L 553.5 504 
L 553.5 135.869434 
L 539.524119 135.869434 
z
" style="fill:#9467bd;"/>
   </g>
   <g id="patch_26">
    <path clip-path="url(#p0601237a70)" d="M 694.811688 504 
L 708.78757 504 
L 708.78757 126.837964 
L 694.811688 126.837964 
z
" style="fill:#9467bd;"/>
   </g>
   <g id="patch_27">
    <path clip-path="url(#p0601237a70)" d="M 850.099258 504 
L 864.075139 504 
L 864.075139 137.14562 
L 850.099258 137.14562 
z
" style="fill:#9467bd;"/>
   </g>
   <g id="patch_28">
    <path clip-path="url(#p0601237a70)" d="M 242.924861 504 
L 256.900742 504 
L 256.900742 100.087143 
L 242.924861 100.087143 
z
" style="fill:#8c564b;"/>
   </g>
   <g id="patch_29">
    <path clip-path="url(#p0601237a70)" d="M 398.21243 504 
L 412.188312 504 
L 412.188312 125.659947 
L 398.21243 125.659947 
z
" style="fill:#8c564b;"/>
   </g>
   <g id="patch_30">
    <path clip-path="url(#p0601237a70)" d="M 553.5 504 
L 567.475881 504 
L 567.475881 146.078922 
L 553.5 146.078922 
z
" style="fill:#8c564b;"/>
   </g>
   <g id="patch_31">
    <path clip-path="url(#p0601237a70)" d="M 708.78757 504 
L 722.763451 504 
L 722.763451 116.481224 
L 708.78757 116.481224 
z
" style="fill:#8c564b;"/>
   </g>
   <g id="patch_32">
    <path clip-path="url(#p0601237a70)" d="M 864.075139 504 
L 878.05102 504 
L 878.05102 147.50236 
L 864.075139 147.50236 
z
" style="fill:#8c564b;"/>
   </g>
   <g id="patch_33">
    <path clip-path="url(#p0601237a70)" d="M 256.900742 504 
L 270.876623 504 
L 270.876623 110.296631 
L 256.900742 110.296631 
z
" style="fill:#e377c2;"/>
   </g>
   <g id="patch_34">
    <path clip-path="url(#p0601237a70)" d="M 412.188312 504 
L 426.164193 504 
L 426.164193 135.869434 
L 412.188312 135.869434 
z
" style="fill:#e377c2;"/>
   </g>
   <g id="patch_35">
    <path clip-path="url(#p0601237a70)" d="M 567.475881 504 
L 581.451763 504 
L 581.451763 135.869434 
L 567.475881 135.869434 
z
" style="fill:#e377c2;"/>
   </g>
   <g id="patch_36">
    <path clip-path="url(#p0601237a70)" d="M 722.763451 504 
L 736.739332 504 
L 736.739332 116.481224 
L 722.763451 116.481224 
z
" style="fill:#e377c2;"/>
   </g>
   <g id="patch_37">
    <path clip-path="url(#p0601237a70)" d="M 878.05102 504 
L 892.026902 504 
L 892.026902 152.656188 
L 878.05102 152.656188 
z
" style="fill:#e377c2;"/>
   </g>
   <g id="patch_38">
    <path clip-path="url(#p0601237a70)" d="M 270.876623 504 
L 284.852505 504 
L 284.852505 100.087143 
L 270.876623 100.087143 
z
" style="fill:#7f7f7f;"/>
   </g>
   <g id="patch_39">
    <path clip-path="url(#p0601237a70)" d="M 426.164193 504 
L 440.140074 504 
L 440.140074 115.401375 
L 426.164193 115.401375 
z
" style="fill:#7f7f7f;"/>
   </g>
   <g id="patch_40">
    <path clip-path="url(#p0601237a70)" d="M 581.451763 504 
L 595.427644 504 
L 595.427644 120.555203 
L 581.451763 120.555203 
z
" style="fill:#7f7f7f;"/>
   </g>
   <g id="patch_41">
    <path clip-path="url(#p0601237a70)" d="M 736.739332 504 
L 750.715213 504 
L 750.715213 126.837964 
L 736.739332 126.837964 
z
" style="fill:#7f7f7f;"/>
   </g>
   <g id="patch_42">
    <path clip-path="url(#p0601237a70)" d="M 892.026902 504 
L 906.002783 504 
L 906.002783 152.656188 
L 892.026902 152.656188 
z
" style="fill:#7f7f7f;"/>
   </g>
   <g id="patch_43">
    <path clip-path="url(#p0601237a70)" d="M 284.852505 504 
L 298.828386 504 
L 298.828386 110.296631 
L 284.852505 110.296631 
z
" style="fill:#bcbd22;"/>
   </g>
   <g id="patch_44">
    <path clip-path="url(#p0601237a70)" d="M 440.140074 504 
L 454.115955 504 
L 454.115955 135.869434 
L 440.140074 135.869434 
z
" style="fill:#bcbd22;"/>
   </g>
   <g id="patch_45">
    <path clip-path="url(#p0601237a70)" d="M 595.427644 504 
L 609.403525 504 
L 609.403525 130.76469 
L 595.427644 130.76469 
z
" style="fill:#bcbd22;"/>
   </g>
   <g id="patch_46">
    <path clip-path="url(#p0601237a70)" d="M 750.715213 504 
L 764.691095 504 
L 764.691095 126.837964 
L 750.715213 126.837964 
z
" style="fill:#bcbd22;"/>
   </g>
   <g id="patch_47">
    <path clip-path="url(#p0601237a70)" d="M 906.002783 504 
L 919.978664 504 
L 919.978664 157.810016 
L 906.002783 157.810016 
z
" style="fill:#bcbd22;"/>
   </g>
   <g id="patch_48">
    <path clip-path="url(#p0601237a70)" d="M 298.828386 504 
L 312.804267 504 
L 312.804267 110.296631 
L 298.828386 110.296631 
z
" style="fill:#17becf;"/>
   </g>
   <g id="patch_49">
    <path clip-path="url(#p0601237a70)" d="M 454.115955 504 
L 468.091837 504 
L 468.091837 130.76469 
L 454.115955 130.76469 
z
" style="fill:#17becf;"/>
   </g>
   <g id="patch_50">
    <path clip-path="url(#p0601237a70)" d="M 609.403525 504 
L 623.379406 504 
L 623.379406 120.555203 
L 609.403525 120.555203 
z
" style="fill:#17becf;"/>
   </g>
   <g id="patch_51">
    <path clip-path="url(#p0601237a70)" d="M 764.691095 504 
L 778.666976 504 
L 778.666976 116.481224 
L 764.691095 116.481224 
z
" style="fill:#17becf;"/>
   </g>
   <g id="patch_52">
    <path clip-path="url(#p0601237a70)" d="M 919.978664 504 
L 933.954545 504 
L 933.954545 147.50236 
L 919.978664 147.50236 
z
" style="fill:#17becf;"/>
   </g>
   <g id="matplotlib.axis_1">
    <g id="xtick_1">
     <g id="line2d_1">
      <defs>
       <path d="M 0 0 
L 0 3.5 
" id="mb754be65f6" style="stroke:#000000;stroke-width:0.8;"/>
      </defs>
      <g>
       <use style="stroke:#000000;stroke-width:0.8;" x="180.033395" xlink:href="#mb754be65f6" y="504"/>
      </g>
     </g>
     <g id="text_1">
      <!-- fold-1 -->
      <g transform="translate(165.665426 518.598438)scale(0.1 -0.1)">
       <defs>
        <path d="M 37.109375 75.984375 
L 37.109375 68.5 
L 28.515625 68.5 
Q 23.6875 68.5 21.796875 66.546875 
Q 19.921875 64.59375 19.921875 59.515625 
L 19.921875 54.6875 
L 34.71875 54.6875 
L 34.71875 47.703125 
L 19.921875 47.703125 
L 19.921875 0 
L 10.890625 0 
L 10.890625 47.703125 
L 2.296875 47.703125 
L 2.296875 54.6875 
L 10.890625 54.6875 
L 10.890625 58.5 
Q 10.890625 67.625 15.140625 71.796875 
Q 19.390625 75.984375 28.609375 75.984375 
z
" id="DejaVuSans-102"/>
        <path d="M 30.609375 48.390625 
Q 23.390625 48.390625 19.1875 42.75 
Q 14.984375 37.109375 14.984375 27.296875 
Q 14.984375 17.484375 19.15625 11.84375 
Q 23.34375 6.203125 30.609375 6.203125 
Q 37.796875 6.203125 41.984375 11.859375 
Q 46.1875 17.53125 46.1875 27.296875 
Q 46.1875 37.015625 41.984375 42.703125 
Q 37.796875 48.390625 30.609375 48.390625 
z
M 30.609375 56 
Q 42.328125 56 49.015625 48.375 
Q 55.71875 40.765625 55.71875 27.296875 
Q 55.71875 13.875 49.015625 6.21875 
Q 42.328125 -1.421875 30.609375 -1.421875 
Q 18.84375 -1.421875 12.171875 6.21875 
Q 5.515625 13.875 5.515625 27.296875 
Q 5.515625 40.765625 12.171875 48.375 
Q 18.84375 56 30.609375 56 
z
" id="DejaVuSans-111"/>
        <path d="M 9.421875 75.984375 
L 18.40625 75.984375 
L 18.40625 0 
L 9.421875 0 
z
" id="DejaVuSans-108"/>
        <path d="M 45.40625 46.390625 
L 45.40625 75.984375 
L 54.390625 75.984375 
L 54.390625 0 
L 45.40625 0 
L 45.40625 8.203125 
Q 42.578125 3.328125 38.25 0.953125 
Q 33.9375 -1.421875 27.875 -1.421875 
Q 17.96875 -1.421875 11.734375 6.484375 
Q 5.515625 14.40625 5.515625 27.296875 
Q 5.515625 40.1875 11.734375 48.09375 
Q 17.96875 56 27.875 56 
Q 33.9375 56 38.25 53.625 
Q 42.578125 51.265625 45.40625 46.390625 
z
M 14.796875 27.296875 
Q 14.796875 17.390625 18.875 11.75 
Q 22.953125 6.109375 30.078125 6.109375 
Q 37.203125 6.109375 41.296875 11.75 
Q 45.40625 17.390625 45.40625 27.296875 
Q 45.40625 37.203125 41.296875 42.84375 
Q 37.203125 48.484375 30.078125 48.484375 
Q 22.953125 48.484375 18.875 42.84375 
Q 14.796875 37.203125 14.796875 27.296875 
z
" id="DejaVuSans-100"/>
        <path d="M 4.890625 31.390625 
L 31.203125 31.390625 
L 31.203125 23.390625 
L 4.890625 23.390625 
z
" id="DejaVuSans-45"/>
        <path d="M 12.40625 8.296875 
L 28.515625 8.296875 
L 28.515625 63.921875 
L 10.984375 60.40625 
L 10.984375 69.390625 
L 28.421875 72.90625 
L 38.28125 72.90625 
L 38.28125 8.296875 
L 54.390625 8.296875 
L 54.390625 0 
L 12.40625 0 
z
" id="DejaVuSans-49"/>
       </defs>
       <use xlink:href="#DejaVuSans-102"/>
       <use x="35.205078" xlink:href="#DejaVuSans-111"/>
       <use x="96.386719" xlink:href="#DejaVuSans-108"/>
       <use x="124.169922" xlink:href="#DejaVuSans-100"/>
       <use x="187.646484" xlink:href="#DejaVuSans-45"/>
       <use x="223.730469" xlink:href="#DejaVuSans-49"/>
      </g>
     </g>
    </g>
    <g id="xtick_2">
     <g id="line2d_2">
      <g>
       <use style="stroke:#000000;stroke-width:0.8;" x="335.320965" xlink:href="#mb754be65f6" y="504"/>
      </g>
     </g>
     <g id="text_2">
      <!-- fold-2 -->
      <g transform="translate(320.952996 518.598438)scale(0.1 -0.1)">
       <defs>
        <path d="M 19.1875 8.296875 
L 53.609375 8.296875 
L 53.609375 0 
L 7.328125 0 
L 7.328125 8.296875 
Q 12.9375 14.109375 22.625 23.890625 
Q 32.328125 33.6875 34.8125 36.53125 
Q 39.546875 41.84375 41.421875 45.53125 
Q 43.3125 49.21875 43.3125 52.78125 
Q 43.3125 58.59375 39.234375 62.25 
Q 35.15625 65.921875 28.609375 65.921875 
Q 23.96875 65.921875 18.8125 64.3125 
Q 13.671875 62.703125 7.8125 59.421875 
L 7.8125 69.390625 
Q 13.765625 71.78125 18.9375 73 
Q 24.125 74.21875 28.421875 74.21875 
Q 39.75 74.21875 46.484375 68.546875 
Q 53.21875 62.890625 53.21875 53.421875 
Q 53.21875 48.921875 51.53125 44.890625 
Q 49.859375 40.875 45.40625 35.40625 
Q 44.1875 33.984375 37.640625 27.21875 
Q 31.109375 20.453125 19.1875 8.296875 
z
" id="DejaVuSans-50"/>
       </defs>
       <use xlink:href="#DejaVuSans-102"/>
       <use x="35.205078" xlink:href="#DejaVuSans-111"/>
       <use x="96.386719" xlink:href="#DejaVuSans-108"/>
       <use x="124.169922" xlink:href="#DejaVuSans-100"/>
       <use x="187.646484" xlink:href="#DejaVuSans-45"/>
       <use x="223.730469" xlink:href="#DejaVuSans-50"/>
      </g>
     </g>
    </g>
    <g id="xtick_3">
     <g id="line2d_3">
      <g>
       <use style="stroke:#000000;stroke-width:0.8;" x="490.608534" xlink:href="#mb754be65f6" y="504"/>
      </g>
     </g>
     <g id="text_3">
      <!-- fold-3 -->
      <g transform="translate(476.240566 518.598438)scale(0.1 -0.1)">
       <defs>
        <path d="M 40.578125 39.3125 
Q 47.65625 37.796875 51.625 33 
Q 55.609375 28.21875 55.609375 21.1875 
Q 55.609375 10.40625 48.1875 4.484375 
Q 40.765625 -1.421875 27.09375 -1.421875 
Q 22.515625 -1.421875 17.65625 -0.515625 
Q 12.796875 0.390625 7.625 2.203125 
L 7.625 11.71875 
Q 11.71875 9.328125 16.59375 8.109375 
Q 21.484375 6.890625 26.8125 6.890625 
Q 36.078125 6.890625 40.9375 10.546875 
Q 45.796875 14.203125 45.796875 21.1875 
Q 45.796875 27.640625 41.28125 31.265625 
Q 36.765625 34.90625 28.71875 34.90625 
L 20.21875 34.90625 
L 20.21875 43.015625 
L 29.109375 43.015625 
Q 36.375 43.015625 40.234375 45.921875 
Q 44.09375 48.828125 44.09375 54.296875 
Q 44.09375 59.90625 40.109375 62.90625 
Q 36.140625 65.921875 28.71875 65.921875 
Q 24.65625 65.921875 20.015625 65.03125 
Q 15.375 64.15625 9.8125 62.3125 
L 9.8125 71.09375 
Q 15.4375 72.65625 20.34375 73.4375 
Q 25.25 74.21875 29.59375 74.21875 
Q 40.828125 74.21875 47.359375 69.109375 
Q 53.90625 64.015625 53.90625 55.328125 
Q 53.90625 49.265625 50.4375 45.09375 
Q 46.96875 40.921875 40.578125 39.3125 
z
" id="DejaVuSans-51"/>
       </defs>
       <use xlink:href="#DejaVuSans-102"/>
       <use x="35.205078" xlink:href="#DejaVuSans-111"/>
       <use x="96.386719" xlink:href="#DejaVuSans-108"/>
       <use x="124.169922" xlink:href="#DejaVuSans-100"/>
       <use x="187.646484" xlink:href="#DejaVuSans-45"/>
       <use x="223.730469" xlink:href="#DejaVuSans-51"/>
      </g>
     </g>
    </g>
    <g id="xtick_4">
     <g id="line2d_4">
      <g>
       <use style="stroke:#000000;stroke-width:0.8;" x="645.896104" xlink:href="#mb754be65f6" y="504"/>
      </g>
     </g>
     <g id="text_4">
      <!-- fold-4 -->
      <g transform="translate(631.528135 518.598438)scale(0.1 -0.1)">
       <defs>
        <path d="M 37.796875 64.3125 
L 12.890625 25.390625 
L 37.796875 25.390625 
z
M 35.203125 72.90625 
L 47.609375 72.90625 
L 47.609375 25.390625 
L 58.015625 25.390625 
L 58.015625 17.1875 
L 47.609375 17.1875 
L 47.609375 0 
L 37.796875 0 
L 37.796875 17.1875 
L 4.890625 17.1875 
L 4.890625 26.703125 
z
" id="DejaVuSans-52"/>
       </defs>
       <use xlink:href="#DejaVuSans-102"/>
       <use x="35.205078" xlink:href="#DejaVuSans-111"/>
       <use x="96.386719" xlink:href="#DejaVuSans-108"/>
       <use x="124.169922" xlink:href="#DejaVuSans-100"/>
       <use x="187.646484" xlink:href="#DejaVuSans-45"/>
       <use x="223.730469" xlink:href="#DejaVuSans-52"/>
      </g>
     </g>
    </g>
    <g id="xtick_5">
     <g id="line2d_5">
      <g>
       <use style="stroke:#000000;stroke-width:0.8;" x="801.183673" xlink:href="#mb754be65f6" y="504"/>
      </g>
     </g>
     <g id="text_5">
      <!-- fold-5 -->
      <g transform="translate(786.815705 518.598438)scale(0.1 -0.1)">
       <defs>
        <path d="M 10.796875 72.90625 
L 49.515625 72.90625 
L 49.515625 64.59375 
L 19.828125 64.59375 
L 19.828125 46.734375 
Q 21.96875 47.46875 24.109375 47.828125 
Q 26.265625 48.1875 28.421875 48.1875 
Q 40.625 48.1875 47.75 41.5 
Q 54.890625 34.8125 54.890625 23.390625 
Q 54.890625 11.625 47.5625 5.09375 
Q 40.234375 -1.421875 26.90625 -1.421875 
Q 22.3125 -1.421875 17.546875 -0.640625 
Q 12.796875 0.140625 7.71875 1.703125 
L 7.71875 11.625 
Q 12.109375 9.234375 16.796875 8.0625 
Q 21.484375 6.890625 26.703125 6.890625 
Q 35.15625 6.890625 40.078125 11.328125 
Q 45.015625 15.765625 45.015625 23.390625 
Q 45.015625 31 40.078125 35.4375 
Q 35.15625 39.890625 26.703125 39.890625 
Q 22.75 39.890625 18.8125 39.015625 
Q 14.890625 38.140625 10.796875 36.28125 
z
" id="DejaVuSans-53"/>
       </defs>
       <use xlink:href="#DejaVuSans-102"/>
       <use x="35.205078" xlink:href="#DejaVuSans-111"/>
       <use x="96.386719" xlink:href="#DejaVuSans-108"/>
       <use x="124.169922" xlink:href="#DejaVuSans-100"/>
       <use x="187.646484" xlink:href="#DejaVuSans-45"/>
       <use x="223.730469" xlink:href="#DejaVuSans-53"/>
      </g>
     </g>
    </g>
    <g id="text_6">
     <!-- k-fold -->
     <g transform="translate(539.417969 532.276562)scale(0.1 -0.1)">
      <defs>
       <path d="M 9.078125 75.984375 
L 18.109375 75.984375 
L 18.109375 31.109375 
L 44.921875 54.6875 
L 56.390625 54.6875 
L 27.390625 29.109375 
L 57.625 0 
L 45.90625 0 
L 18.109375 26.703125 
L 18.109375 0 
L 9.078125 0 
z
" id="DejaVuSans-107"/>
      </defs>
      <use xlink:href="#DejaVuSans-107"/>
      <use x="57.910156" xlink:href="#DejaVuSans-45"/>
      <use x="93.994141" xlink:href="#DejaVuSans-102"/>
      <use x="129.199219" xlink:href="#DejaVuSans-111"/>
      <use x="190.380859" xlink:href="#DejaVuSans-108"/>
      <use x="218.164062" xlink:href="#DejaVuSans-100"/>
     </g>
    </g>
   </g>
   <g id="matplotlib.axis_2">
    <g id="ytick_1">
     <g id="line2d_6">
      <defs>
       <path d="M 0 0 
L -3.5 0 
" id="mda26a90681" style="stroke:#000000;stroke-width:0.8;"/>
      </defs>
      <g>
       <use style="stroke:#000000;stroke-width:0.8;" x="135" xlink:href="#mda26a90681" y="504"/>
      </g>
     </g>
     <g id="text_7">
      <!-- 0 -->
      <g transform="translate(121.6375 507.799219)scale(0.1 -0.1)">
       <defs>
        <path d="M 31.78125 66.40625 
Q 24.171875 66.40625 20.328125 58.90625 
Q 16.5 51.421875 16.5 36.375 
Q 16.5 21.390625 20.328125 13.890625 
Q 24.171875 6.390625 31.78125 6.390625 
Q 39.453125 6.390625 43.28125 13.890625 
Q 47.125 21.390625 47.125 36.375 
Q 47.125 51.421875 43.28125 58.90625 
Q 39.453125 66.40625 31.78125 66.40625 
z
M 31.78125 74.21875 
Q 44.046875 74.21875 50.515625 64.515625 
Q 56.984375 54.828125 56.984375 36.375 
Q 56.984375 17.96875 50.515625 8.265625 
Q 44.046875 -1.421875 31.78125 -1.421875 
Q 19.53125 -1.421875 13.0625 8.265625 
Q 6.59375 17.96875 6.59375 36.375 
Q 6.59375 54.828125 13.0625 64.515625 
Q 19.53125 74.21875 31.78125 74.21875 
z
" id="DejaVuSans-48"/>
       </defs>
       <use xlink:href="#DejaVuSans-48"/>
      </g>
     </g>
    </g>
    <g id="ytick_2">
     <g id="line2d_7">
      <g>
       <use style="stroke:#000000;stroke-width:0.8;" x="135" xlink:href="#mda26a90681" y="454.915925"/>
      </g>
     </g>
     <g id="text_8">
      <!-- 10 -->
      <g transform="translate(115.275 458.715143)scale(0.1 -0.1)">
       <use xlink:href="#DejaVuSans-49"/>
       <use x="63.623047" xlink:href="#DejaVuSans-48"/>
      </g>
     </g>
    </g>
    <g id="ytick_3">
     <g id="line2d_8">
      <g>
       <use style="stroke:#000000;stroke-width:0.8;" x="135" xlink:href="#mda26a90681" y="405.831849"/>
      </g>
     </g>
     <g id="text_9">
      <!-- 20 -->
      <g transform="translate(115.275 409.631068)scale(0.1 -0.1)">
       <use xlink:href="#DejaVuSans-50"/>
       <use x="63.623047" xlink:href="#DejaVuSans-48"/>
      </g>
     </g>
    </g>
    <g id="ytick_4">
     <g id="line2d_9">
      <g>
       <use style="stroke:#000000;stroke-width:0.8;" x="135" xlink:href="#mda26a90681" y="356.747774"/>
      </g>
     </g>
     <g id="text_10">
      <!-- 30 -->
      <g transform="translate(115.275 360.546992)scale(0.1 -0.1)">
       <use xlink:href="#DejaVuSans-51"/>
       <use x="63.623047" xlink:href="#DejaVuSans-48"/>
      </g>
     </g>
    </g>
    <g id="ytick_5">
     <g id="line2d_10">
      <g>
       <use style="stroke:#000000;stroke-width:0.8;" x="135" xlink:href="#mda26a90681" y="307.663698"/>
      </g>
     </g>
     <g id="text_11">
      <!-- 40 -->
      <g transform="translate(115.275 311.462917)scale(0.1 -0.1)">
       <use xlink:href="#DejaVuSans-52"/>
       <use x="63.623047" xlink:href="#DejaVuSans-48"/>
      </g>
     </g>
    </g>
    <g id="ytick_6">
     <g id="line2d_11">
      <g>
       <use style="stroke:#000000;stroke-width:0.8;" x="135" xlink:href="#mda26a90681" y="258.579623"/>
      </g>
     </g>
     <g id="text_12">
      <!-- 50 -->
      <g transform="translate(115.275 262.378842)scale(0.1 -0.1)">
       <use xlink:href="#DejaVuSans-53"/>
       <use x="63.623047" xlink:href="#DejaVuSans-48"/>
      </g>
     </g>
    </g>
    <g id="ytick_7">
     <g id="line2d_12">
      <g>
       <use style="stroke:#000000;stroke-width:0.8;" x="135" xlink:href="#mda26a90681" y="209.495547"/>
      </g>
     </g>
     <g id="text_13">
      <!-- 60 -->
      <g transform="translate(115.275 213.294766)scale(0.1 -0.1)">
       <defs>
        <path d="M 33.015625 40.375 
Q 26.375 40.375 22.484375 35.828125 
Q 18.609375 31.296875 18.609375 23.390625 
Q 18.609375 15.53125 22.484375 10.953125 
Q 26.375 6.390625 33.015625 6.390625 
Q 39.65625 6.390625 43.53125 10.953125 
Q 47.40625 15.53125 47.40625 23.390625 
Q 47.40625 31.296875 43.53125 35.828125 
Q 39.65625 40.375 33.015625 40.375 
z
M 52.59375 71.296875 
L 52.59375 62.3125 
Q 48.875 64.0625 45.09375 64.984375 
Q 41.3125 65.921875 37.59375 65.921875 
Q 27.828125 65.921875 22.671875 59.328125 
Q 17.53125 52.734375 16.796875 39.40625 
Q 19.671875 43.65625 24.015625 45.921875 
Q 28.375 48.1875 33.59375 48.1875 
Q 44.578125 48.1875 50.953125 41.515625 
Q 57.328125 34.859375 57.328125 23.390625 
Q 57.328125 12.15625 50.6875 5.359375 
Q 44.046875 -1.421875 33.015625 -1.421875 
Q 20.359375 -1.421875 13.671875 8.265625 
Q 6.984375 17.96875 6.984375 36.375 
Q 6.984375 53.65625 15.1875 63.9375 
Q 23.390625 74.21875 37.203125 74.21875 
Q 40.921875 74.21875 44.703125 73.484375 
Q 48.484375 72.75 52.59375 71.296875 
z
" id="DejaVuSans-54"/>
       </defs>
       <use xlink:href="#DejaVuSans-54"/>
       <use x="63.623047" xlink:href="#DejaVuSans-48"/>
      </g>
     </g>
    </g>
    <g id="ytick_8">
     <g id="line2d_13">
      <g>
       <use style="stroke:#000000;stroke-width:0.8;" x="135" xlink:href="#mda26a90681" y="160.411472"/>
      </g>
     </g>
     <g id="text_14">
      <!-- 70 -->
      <g transform="translate(115.275 164.210691)scale(0.1 -0.1)">
       <defs>
        <path d="M 8.203125 72.90625 
L 55.078125 72.90625 
L 55.078125 68.703125 
L 28.609375 0 
L 18.3125 0 
L 43.21875 64.59375 
L 8.203125 64.59375 
z
" id="DejaVuSans-55"/>
       </defs>
       <use xlink:href="#DejaVuSans-55"/>
       <use x="63.623047" xlink:href="#DejaVuSans-48"/>
      </g>
     </g>
    </g>
    <g id="ytick_9">
     <g id="line2d_14">
      <g>
       <use style="stroke:#000000;stroke-width:0.8;" x="135" xlink:href="#mda26a90681" y="111.327396"/>
      </g>
     </g>
     <g id="text_15">
      <!-- 80 -->
      <g transform="translate(115.275 115.126615)scale(0.1 -0.1)">
       <defs>
        <path d="M 31.78125 34.625 
Q 24.75 34.625 20.71875 30.859375 
Q 16.703125 27.09375 16.703125 20.515625 
Q 16.703125 13.921875 20.71875 10.15625 
Q 24.75 6.390625 31.78125 6.390625 
Q 38.8125 6.390625 42.859375 10.171875 
Q 46.921875 13.96875 46.921875 20.515625 
Q 46.921875 27.09375 42.890625 30.859375 
Q 38.875 34.625 31.78125 34.625 
z
M 21.921875 38.8125 
Q 15.578125 40.375 12.03125 44.71875 
Q 8.5 49.078125 8.5 55.328125 
Q 8.5 64.0625 14.71875 69.140625 
Q 20.953125 74.21875 31.78125 74.21875 
Q 42.671875 74.21875 48.875 69.140625 
Q 55.078125 64.0625 55.078125 55.328125 
Q 55.078125 49.078125 51.53125 44.71875 
Q 48 40.375 41.703125 38.8125 
Q 48.828125 37.15625 52.796875 32.3125 
Q 56.78125 27.484375 56.78125 20.515625 
Q 56.78125 9.90625 50.3125 4.234375 
Q 43.84375 -1.421875 31.78125 -1.421875 
Q 19.734375 -1.421875 13.25 4.234375 
Q 6.78125 9.90625 6.78125 20.515625 
Q 6.78125 27.484375 10.78125 32.3125 
Q 14.796875 37.15625 21.921875 38.8125 
z
M 18.3125 54.390625 
Q 18.3125 48.734375 21.84375 45.5625 
Q 25.390625 42.390625 31.78125 42.390625 
Q 38.140625 42.390625 41.71875 45.5625 
Q 45.3125 48.734375 45.3125 54.390625 
Q 45.3125 60.0625 41.71875 63.234375 
Q 38.140625 66.40625 31.78125 66.40625 
Q 25.390625 66.40625 21.84375 63.234375 
Q 18.3125 60.0625 18.3125 54.390625 
z
" id="DejaVuSans-56"/>
       </defs>
       <use xlink:href="#DejaVuSans-56"/>
       <use x="63.623047" xlink:href="#DejaVuSans-48"/>
      </g>
     </g>
    </g>
    <g id="text_16">
     <!-- accuracy -->
     <g transform="translate(109.195312 309.119375)rotate(-90)scale(0.1 -0.1)">
      <defs>
       <path d="M 34.28125 27.484375 
Q 23.390625 27.484375 19.1875 25 
Q 14.984375 22.515625 14.984375 16.5 
Q 14.984375 11.71875 18.140625 8.90625 
Q 21.296875 6.109375 26.703125 6.109375 
Q 34.1875 6.109375 38.703125 11.40625 
Q 43.21875 16.703125 43.21875 25.484375 
L 43.21875 27.484375 
z
M 52.203125 31.203125 
L 52.203125 0 
L 43.21875 0 
L 43.21875 8.296875 
Q 40.140625 3.328125 35.546875 0.953125 
Q 30.953125 -1.421875 24.3125 -1.421875 
Q 15.921875 -1.421875 10.953125 3.296875 
Q 6 8.015625 6 15.921875 
Q 6 25.140625 12.171875 29.828125 
Q 18.359375 34.515625 30.609375 34.515625 
L 43.21875 34.515625 
L 43.21875 35.40625 
Q 43.21875 41.609375 39.140625 45 
Q 35.0625 48.390625 27.6875 48.390625 
Q 23 48.390625 18.546875 47.265625 
Q 14.109375 46.140625 10.015625 43.890625 
L 10.015625 52.203125 
Q 14.9375 54.109375 19.578125 55.046875 
Q 24.21875 56 28.609375 56 
Q 40.484375 56 46.34375 49.84375 
Q 52.203125 43.703125 52.203125 31.203125 
z
" id="DejaVuSans-97"/>
       <path d="M 48.78125 52.59375 
L 48.78125 44.1875 
Q 44.96875 46.296875 41.140625 47.34375 
Q 37.3125 48.390625 33.40625 48.390625 
Q 24.65625 48.390625 19.8125 42.84375 
Q 14.984375 37.3125 14.984375 27.296875 
Q 14.984375 17.28125 19.8125 11.734375 
Q 24.65625 6.203125 33.40625 6.203125 
Q 37.3125 6.203125 41.140625 7.25 
Q 44.96875 8.296875 48.78125 10.40625 
L 48.78125 2.09375 
Q 45.015625 0.34375 40.984375 -0.53125 
Q 36.96875 -1.421875 32.421875 -1.421875 
Q 20.0625 -1.421875 12.78125 6.34375 
Q 5.515625 14.109375 5.515625 27.296875 
Q 5.515625 40.671875 12.859375 48.328125 
Q 20.21875 56 33.015625 56 
Q 37.15625 56 41.109375 55.140625 
Q 45.0625 54.296875 48.78125 52.59375 
z
" id="DejaVuSans-99"/>
       <path d="M 8.5 21.578125 
L 8.5 54.6875 
L 17.484375 54.6875 
L 17.484375 21.921875 
Q 17.484375 14.15625 20.5 10.265625 
Q 23.53125 6.390625 29.59375 6.390625 
Q 36.859375 6.390625 41.078125 11.03125 
Q 45.3125 15.671875 45.3125 23.6875 
L 45.3125 54.6875 
L 54.296875 54.6875 
L 54.296875 0 
L 45.3125 0 
L 45.3125 8.40625 
Q 42.046875 3.421875 37.71875 1 
Q 33.40625 -1.421875 27.6875 -1.421875 
Q 18.265625 -1.421875 13.375 4.4375 
Q 8.5 10.296875 8.5 21.578125 
z
M 31.109375 56 
z
" id="DejaVuSans-117"/>
       <path d="M 41.109375 46.296875 
Q 39.59375 47.171875 37.8125 47.578125 
Q 36.03125 48 33.890625 48 
Q 26.265625 48 22.1875 43.046875 
Q 18.109375 38.09375 18.109375 28.8125 
L 18.109375 0 
L 9.078125 0 
L 9.078125 54.6875 
L 18.109375 54.6875 
L 18.109375 46.1875 
Q 20.953125 51.171875 25.484375 53.578125 
Q 30.03125 56 36.53125 56 
Q 37.453125 56 38.578125 55.875 
Q 39.703125 55.765625 41.0625 55.515625 
z
" id="DejaVuSans-114"/>
       <path d="M 32.171875 -5.078125 
Q 28.375 -14.84375 24.75 -17.8125 
Q 21.140625 -20.796875 15.09375 -20.796875 
L 7.90625 -20.796875 
L 7.90625 -13.28125 
L 13.1875 -13.28125 
Q 16.890625 -13.28125 18.9375 -11.515625 
Q 21 -9.765625 23.484375 -3.21875 
L 25.09375 0.875 
L 2.984375 54.6875 
L 12.5 54.6875 
L 29.59375 11.921875 
L 46.6875 54.6875 
L 56.203125 54.6875 
z
" id="DejaVuSans-121"/>
      </defs>
      <use xlink:href="#DejaVuSans-97"/>
      <use x="61.279297" xlink:href="#DejaVuSans-99"/>
      <use x="116.259766" xlink:href="#DejaVuSans-99"/>
      <use x="171.240234" xlink:href="#DejaVuSans-117"/>
      <use x="234.619141" xlink:href="#DejaVuSans-114"/>
      <use x="275.732422" xlink:href="#DejaVuSans-97"/>
      <use x="337.011719" xlink:href="#DejaVuSans-99"/>
      <use x="391.992188" xlink:href="#DejaVuSans-121"/>
     </g>
    </g>
   </g>
   <g id="line2d_15">
    <path clip-path="url(#p0601237a70)" d="M 135 135.869434 
L 972 135.869434 
" style="fill:none;stroke:#808080;stroke-linecap:square;stroke-width:1.5;"/>
   </g>
   <g id="patch_53">
    <path d="M 135 504 
L 135 69.12 
" style="fill:none;stroke:#000000;stroke-linecap:square;stroke-linejoin:miter;stroke-width:0.8;"/>
   </g>
   <g id="patch_54">
    <path d="M 972 504 
L 972 69.12 
" style="fill:none;stroke:#000000;stroke-linecap:square;stroke-linejoin:miter;stroke-width:0.8;"/>
   </g>
   <g id="patch_55">
    <path d="M 135 504 
L 972 504 
" style="fill:none;stroke:#000000;stroke-linecap:square;stroke-linejoin:miter;stroke-width:0.8;"/>
   </g>
   <g id="patch_56">
    <path d="M 135 69.12 
L 972 69.12 
" style="fill:none;stroke:#000000;stroke-linecap:square;stroke-linejoin:miter;stroke-width:0.8;"/>
   </g>
   <g id="text_17">
    <g id="patch_57">
     <path d="M 108.957746 144.708497 
L 129.682746 144.708497 
L 129.682746 127.030372 
L 108.957746 127.030372 
z
" style="fill:#ffffff;opacity:0.5;stroke:#000000;stroke-linejoin:miter;"/>
    </g>
    <!-- 75 -->
    <g transform="translate(112.957746 138.628809)scale(0.1 -0.1)">
     <use xlink:href="#DejaVuSans-55"/>
     <use x="63.623047" xlink:href="#DejaVuSans-53"/>
    </g>
   </g>
   <g id="text_18">
    <!-- accuracy by k-fold and features  -->
    <g transform="translate(456.5625 63.12)scale(0.12 -0.12)">
     <defs>
      <path id="DejaVuSans-32"/>
      <path d="M 48.6875 27.296875 
Q 48.6875 37.203125 44.609375 42.84375 
Q 40.53125 48.484375 33.40625 48.484375 
Q 26.265625 48.484375 22.1875 42.84375 
Q 18.109375 37.203125 18.109375 27.296875 
Q 18.109375 17.390625 22.1875 11.75 
Q 26.265625 6.109375 33.40625 6.109375 
Q 40.53125 6.109375 44.609375 11.75 
Q 48.6875 17.390625 48.6875 27.296875 
z
M 18.109375 46.390625 
Q 20.953125 51.265625 25.265625 53.625 
Q 29.59375 56 35.59375 56 
Q 45.5625 56 51.78125 48.09375 
Q 58.015625 40.1875 58.015625 27.296875 
Q 58.015625 14.40625 51.78125 6.484375 
Q 45.5625 -1.421875 35.59375 -1.421875 
Q 29.59375 -1.421875 25.265625 0.953125 
Q 20.953125 3.328125 18.109375 8.203125 
L 18.109375 0 
L 9.078125 0 
L 9.078125 75.984375 
L 18.109375 75.984375 
z
" id="DejaVuSans-98"/>
      <path d="M 54.890625 33.015625 
L 54.890625 0 
L 45.90625 0 
L 45.90625 32.71875 
Q 45.90625 40.484375 42.875 44.328125 
Q 39.84375 48.1875 33.796875 48.1875 
Q 26.515625 48.1875 22.3125 43.546875 
Q 18.109375 38.921875 18.109375 30.90625 
L 18.109375 0 
L 9.078125 0 
L 9.078125 54.6875 
L 18.109375 54.6875 
L 18.109375 46.1875 
Q 21.34375 51.125 25.703125 53.5625 
Q 30.078125 56 35.796875 56 
Q 45.21875 56 50.046875 50.171875 
Q 54.890625 44.34375 54.890625 33.015625 
z
" id="DejaVuSans-110"/>
      <path d="M 56.203125 29.59375 
L 56.203125 25.203125 
L 14.890625 25.203125 
Q 15.484375 15.921875 20.484375 11.0625 
Q 25.484375 6.203125 34.421875 6.203125 
Q 39.59375 6.203125 44.453125 7.46875 
Q 49.3125 8.734375 54.109375 11.28125 
L 54.109375 2.78125 
Q 49.265625 0.734375 44.1875 -0.34375 
Q 39.109375 -1.421875 33.890625 -1.421875 
Q 20.796875 -1.421875 13.15625 6.1875 
Q 5.515625 13.8125 5.515625 26.8125 
Q 5.515625 40.234375 12.765625 48.109375 
Q 20.015625 56 32.328125 56 
Q 43.359375 56 49.78125 48.890625 
Q 56.203125 41.796875 56.203125 29.59375 
z
M 47.21875 32.234375 
Q 47.125 39.59375 43.09375 43.984375 
Q 39.0625 48.390625 32.421875 48.390625 
Q 24.90625 48.390625 20.390625 44.140625 
Q 15.875 39.890625 15.1875 32.171875 
z
" id="DejaVuSans-101"/>
      <path d="M 18.3125 70.21875 
L 18.3125 54.6875 
L 36.8125 54.6875 
L 36.8125 47.703125 
L 18.3125 47.703125 
L 18.3125 18.015625 
Q 18.3125 11.328125 20.140625 9.421875 
Q 21.96875 7.515625 27.59375 7.515625 
L 36.8125 7.515625 
L 36.8125 0 
L 27.59375 0 
Q 17.1875 0 13.234375 3.875 
Q 9.28125 7.765625 9.28125 18.015625 
L 9.28125 47.703125 
L 2.6875 47.703125 
L 2.6875 54.6875 
L 9.28125 54.6875 
L 9.28125 70.21875 
z
" id="DejaVuSans-116"/>
      <path d="M 44.28125 53.078125 
L 44.28125 44.578125 
Q 40.484375 46.53125 36.375 47.5 
Q 32.28125 48.484375 27.875 48.484375 
Q 21.1875 48.484375 17.84375 46.4375 
Q 14.5 44.390625 14.5 40.28125 
Q 14.5 37.15625 16.890625 35.375 
Q 19.28125 33.59375 26.515625 31.984375 
L 29.59375 31.296875 
Q 39.15625 29.25 43.1875 25.515625 
Q 47.21875 21.78125 47.21875 15.09375 
Q 47.21875 7.46875 41.1875 3.015625 
Q 35.15625 -1.421875 24.609375 -1.421875 
Q 20.21875 -1.421875 15.453125 -0.5625 
Q 10.6875 0.296875 5.421875 2 
L 5.421875 11.28125 
Q 10.40625 8.6875 15.234375 7.390625 
Q 20.0625 6.109375 24.8125 6.109375 
Q 31.15625 6.109375 34.5625 8.28125 
Q 37.984375 10.453125 37.984375 14.40625 
Q 37.984375 18.0625 35.515625 20.015625 
Q 33.0625 21.96875 24.703125 23.78125 
L 21.578125 24.515625 
Q 13.234375 26.265625 9.515625 29.90625 
Q 5.8125 33.546875 5.8125 39.890625 
Q 5.8125 47.609375 11.28125 51.796875 
Q 16.75 56 26.8125 56 
Q 31.78125 56 36.171875 55.265625 
Q 40.578125 54.546875 44.28125 53.078125 
z
" id="DejaVuSans-115"/>
     </defs>
     <use xlink:href="#DejaVuSans-97"/>
     <use x="61.279297" xlink:href="#DejaVuSans-99"/>
     <use x="116.259766" xlink:href="#DejaVuSans-99"/>
     <use x="171.240234" xlink:href="#DejaVuSans-117"/>
     <use x="234.619141" xlink:href="#DejaVuSans-114"/>
     <use x="275.732422" xlink:href="#DejaVuSans-97"/>
     <use x="337.011719" xlink:href="#DejaVuSans-99"/>
     <use x="391.992188" xlink:href="#DejaVuSans-121"/>
     <use x="451.171875" xlink:href="#DejaVuSans-32"/>
     <use x="482.958984" xlink:href="#DejaVuSans-98"/>
     <use x="546.435547" xlink:href="#DejaVuSans-121"/>
     <use x="605.615234" xlink:href="#DejaVuSans-32"/>
     <use x="637.402344" xlink:href="#DejaVuSans-107"/>
     <use x="695.3125" xlink:href="#DejaVuSans-45"/>
     <use x="731.396484" xlink:href="#DejaVuSans-102"/>
     <use x="766.601562" xlink:href="#DejaVuSans-111"/>
     <use x="827.783203" xlink:href="#DejaVuSans-108"/>
     <use x="855.566406" xlink:href="#DejaVuSans-100"/>
     <use x="919.042969" xlink:href="#DejaVuSans-32"/>
     <use x="950.830078" xlink:href="#DejaVuSans-97"/>
     <use x="1012.109375" xlink:href="#DejaVuSans-110"/>
     <use x="1075.488281" xlink:href="#DejaVuSans-100"/>
     <use x="1138.964844" xlink:href="#DejaVuSans-32"/>
     <use x="1170.751953" xlink:href="#DejaVuSans-102"/>
     <use x="1205.957031" xlink:href="#DejaVuSans-101"/>
     <use x="1267.480469" xlink:href="#DejaVuSans-97"/>
     <use x="1328.759766" xlink:href="#DejaVuSans-116"/>
     <use x="1367.96875" xlink:href="#DejaVuSans-117"/>
     <use x="1431.347656" xlink:href="#DejaVuSans-114"/>
     <use x="1470.210938" xlink:href="#DejaVuSans-101"/>
     <use x="1531.734375" xlink:href="#DejaVuSans-115"/>
     <use x="1583.833984" xlink:href="#DejaVuSans-32"/>
    </g>
   </g>
   <g id="legend_1">
    <g id="patch_58">
     <path d="M 142 499 
L 248.846875 499 
Q 250.846875 499 250.846875 497 
L 250.846875 351.21875 
Q 250.846875 349.21875 248.846875 349.21875 
L 142 349.21875 
Q 140 349.21875 140 351.21875 
L 140 497 
Q 140 499 142 499 
z
" style="fill:#ffffff;opacity:0.8;stroke:#cccccc;stroke-linejoin:miter;"/>
    </g>
    <g id="patch_59">
     <path d="M 144 360.817188 
L 164 360.817188 
L 164 353.817188 
L 144 353.817188 
z
" style="fill:#1f77b4;"/>
    </g>
    <g id="text_19">
     <!-- featurenum-1 -->
     <g transform="translate(172 360.817188)scale(0.1 -0.1)">
      <defs>
       <path d="M 52 44.1875 
Q 55.375 50.25 60.0625 53.125 
Q 64.75 56 71.09375 56 
Q 79.640625 56 84.28125 50.015625 
Q 88.921875 44.046875 88.921875 33.015625 
L 88.921875 0 
L 79.890625 0 
L 79.890625 32.71875 
Q 79.890625 40.578125 77.09375 44.375 
Q 74.3125 48.1875 68.609375 48.1875 
Q 61.625 48.1875 57.5625 43.546875 
Q 53.515625 38.921875 53.515625 30.90625 
L 53.515625 0 
L 44.484375 0 
L 44.484375 32.71875 
Q 44.484375 40.625 41.703125 44.40625 
Q 38.921875 48.1875 33.109375 48.1875 
Q 26.21875 48.1875 22.15625 43.53125 
Q 18.109375 38.875 18.109375 30.90625 
L 18.109375 0 
L 9.078125 0 
L 9.078125 54.6875 
L 18.109375 54.6875 
L 18.109375 46.1875 
Q 21.1875 51.21875 25.484375 53.609375 
Q 29.78125 56 35.6875 56 
Q 41.65625 56 45.828125 52.96875 
Q 50 49.953125 52 44.1875 
z
" id="DejaVuSans-109"/>
      </defs>
      <use xlink:href="#DejaVuSans-102"/>
      <use x="35.205078" xlink:href="#DejaVuSans-101"/>
      <use x="96.728516" xlink:href="#DejaVuSans-97"/>
      <use x="158.007812" xlink:href="#DejaVuSans-116"/>
      <use x="197.216797" xlink:href="#DejaVuSans-117"/>
      <use x="260.595703" xlink:href="#DejaVuSans-114"/>
      <use x="299.458984" xlink:href="#DejaVuSans-101"/>
      <use x="360.982422" xlink:href="#DejaVuSans-110"/>
      <use x="424.361328" xlink:href="#DejaVuSans-117"/>
      <use x="487.740234" xlink:href="#DejaVuSans-109"/>
      <use x="585.152344" xlink:href="#DejaVuSans-45"/>
      <use x="621.236328" xlink:href="#DejaVuSans-49"/>
     </g>
    </g>
    <g id="patch_60">
     <path d="M 144 375.495313 
L 164 375.495313 
L 164 368.495313 
L 144 368.495313 
z
" style="fill:#ff7f0e;"/>
    </g>
    <g id="text_20">
     <!-- featurenum-2 -->
     <g transform="translate(172 375.495313)scale(0.1 -0.1)">
      <use xlink:href="#DejaVuSans-102"/>
      <use x="35.205078" xlink:href="#DejaVuSans-101"/>
      <use x="96.728516" xlink:href="#DejaVuSans-97"/>
      <use x="158.007812" xlink:href="#DejaVuSans-116"/>
      <use x="197.216797" xlink:href="#DejaVuSans-117"/>
      <use x="260.595703" xlink:href="#DejaVuSans-114"/>
      <use x="299.458984" xlink:href="#DejaVuSans-101"/>
      <use x="360.982422" xlink:href="#DejaVuSans-110"/>
      <use x="424.361328" xlink:href="#DejaVuSans-117"/>
      <use x="487.740234" xlink:href="#DejaVuSans-109"/>
      <use x="585.152344" xlink:href="#DejaVuSans-45"/>
      <use x="621.236328" xlink:href="#DejaVuSans-50"/>
     </g>
    </g>
    <g id="patch_61">
     <path d="M 144 390.173438 
L 164 390.173438 
L 164 383.173438 
L 144 383.173438 
z
" style="fill:#2ca02c;"/>
    </g>
    <g id="text_21">
     <!-- featurenum-3 -->
     <g transform="translate(172 390.173438)scale(0.1 -0.1)">
      <use xlink:href="#DejaVuSans-102"/>
      <use x="35.205078" xlink:href="#DejaVuSans-101"/>
      <use x="96.728516" xlink:href="#DejaVuSans-97"/>
      <use x="158.007812" xlink:href="#DejaVuSans-116"/>
      <use x="197.216797" xlink:href="#DejaVuSans-117"/>
      <use x="260.595703" xlink:href="#DejaVuSans-114"/>
      <use x="299.458984" xlink:href="#DejaVuSans-101"/>
      <use x="360.982422" xlink:href="#DejaVuSans-110"/>
      <use x="424.361328" xlink:href="#DejaVuSans-117"/>
      <use x="487.740234" xlink:href="#DejaVuSans-109"/>
      <use x="585.152344" xlink:href="#DejaVuSans-45"/>
      <use x="621.236328" xlink:href="#DejaVuSans-51"/>
     </g>
    </g>
    <g id="patch_62">
     <path d="M 144 404.851562 
L 164 404.851562 
L 164 397.851562 
L 144 397.851562 
z
" style="fill:#d62728;"/>
    </g>
    <g id="text_22">
     <!-- featurenum-4 -->
     <g transform="translate(172 404.851562)scale(0.1 -0.1)">
      <use xlink:href="#DejaVuSans-102"/>
      <use x="35.205078" xlink:href="#DejaVuSans-101"/>
      <use x="96.728516" xlink:href="#DejaVuSans-97"/>
      <use x="158.007812" xlink:href="#DejaVuSans-116"/>
      <use x="197.216797" xlink:href="#DejaVuSans-117"/>
      <use x="260.595703" xlink:href="#DejaVuSans-114"/>
      <use x="299.458984" xlink:href="#DejaVuSans-101"/>
      <use x="360.982422" xlink:href="#DejaVuSans-110"/>
      <use x="424.361328" xlink:href="#DejaVuSans-117"/>
      <use x="487.740234" xlink:href="#DejaVuSans-109"/>
      <use x="585.152344" xlink:href="#DejaVuSans-45"/>
      <use x="621.236328" xlink:href="#DejaVuSans-52"/>
     </g>
    </g>
    <g id="patch_63">
     <path d="M 144 419.529688 
L 164 419.529688 
L 164 412.529688 
L 144 412.529688 
z
" style="fill:#9467bd;"/>
    </g>
    <g id="text_23">
     <!-- featurenum-5 -->
     <g transform="translate(172 419.529688)scale(0.1 -0.1)">
      <use xlink:href="#DejaVuSans-102"/>
      <use x="35.205078" xlink:href="#DejaVuSans-101"/>
      <use x="96.728516" xlink:href="#DejaVuSans-97"/>
      <use x="158.007812" xlink:href="#DejaVuSans-116"/>
      <use x="197.216797" xlink:href="#DejaVuSans-117"/>
      <use x="260.595703" xlink:href="#DejaVuSans-114"/>
      <use x="299.458984" xlink:href="#DejaVuSans-101"/>
      <use x="360.982422" xlink:href="#DejaVuSans-110"/>
      <use x="424.361328" xlink:href="#DejaVuSans-117"/>
      <use x="487.740234" xlink:href="#DejaVuSans-109"/>
      <use x="585.152344" xlink:href="#DejaVuSans-45"/>
      <use x="621.236328" xlink:href="#DejaVuSans-53"/>
     </g>
    </g>
    <g id="patch_64">
     <path d="M 144 434.207813 
L 164 434.207813 
L 164 427.207813 
L 144 427.207813 
z
" style="fill:#8c564b;"/>
    </g>
    <g id="text_24">
     <!-- featurenum-6 -->
     <g transform="translate(172 434.207813)scale(0.1 -0.1)">
      <use xlink:href="#DejaVuSans-102"/>
      <use x="35.205078" xlink:href="#DejaVuSans-101"/>
      <use x="96.728516" xlink:href="#DejaVuSans-97"/>
      <use x="158.007812" xlink:href="#DejaVuSans-116"/>
      <use x="197.216797" xlink:href="#DejaVuSans-117"/>
      <use x="260.595703" xlink:href="#DejaVuSans-114"/>
      <use x="299.458984" xlink:href="#DejaVuSans-101"/>
      <use x="360.982422" xlink:href="#DejaVuSans-110"/>
      <use x="424.361328" xlink:href="#DejaVuSans-117"/>
      <use x="487.740234" xlink:href="#DejaVuSans-109"/>
      <use x="585.152344" xlink:href="#DejaVuSans-45"/>
      <use x="621.236328" xlink:href="#DejaVuSans-54"/>
     </g>
    </g>
    <g id="patch_65">
     <path d="M 144 448.885938 
L 164 448.885938 
L 164 441.885938 
L 144 441.885938 
z
" style="fill:#e377c2;"/>
    </g>
    <g id="text_25">
     <!-- featurenum-7 -->
     <g transform="translate(172 448.885938)scale(0.1 -0.1)">
      <use xlink:href="#DejaVuSans-102"/>
      <use x="35.205078" xlink:href="#DejaVuSans-101"/>
      <use x="96.728516" xlink:href="#DejaVuSans-97"/>
      <use x="158.007812" xlink:href="#DejaVuSans-116"/>
      <use x="197.216797" xlink:href="#DejaVuSans-117"/>
      <use x="260.595703" xlink:href="#DejaVuSans-114"/>
      <use x="299.458984" xlink:href="#DejaVuSans-101"/>
      <use x="360.982422" xlink:href="#DejaVuSans-110"/>
      <use x="424.361328" xlink:href="#DejaVuSans-117"/>
      <use x="487.740234" xlink:href="#DejaVuSans-109"/>
      <use x="585.152344" xlink:href="#DejaVuSans-45"/>
      <use x="621.236328" xlink:href="#DejaVuSans-55"/>
     </g>
    </g>
    <g id="patch_66">
     <path d="M 144 463.564063 
L 164 463.564063 
L 164 456.564063 
L 144 456.564063 
z
" style="fill:#7f7f7f;"/>
    </g>
    <g id="text_26">
     <!-- featurenum-8 -->
     <g transform="translate(172 463.564063)scale(0.1 -0.1)">
      <use xlink:href="#DejaVuSans-102"/>
      <use x="35.205078" xlink:href="#DejaVuSans-101"/>
      <use x="96.728516" xlink:href="#DejaVuSans-97"/>
      <use x="158.007812" xlink:href="#DejaVuSans-116"/>
      <use x="197.216797" xlink:href="#DejaVuSans-117"/>
      <use x="260.595703" xlink:href="#DejaVuSans-114"/>
      <use x="299.458984" xlink:href="#DejaVuSans-101"/>
      <use x="360.982422" xlink:href="#DejaVuSans-110"/>
      <use x="424.361328" xlink:href="#DejaVuSans-117"/>
      <use x="487.740234" xlink:href="#DejaVuSans-109"/>
      <use x="585.152344" xlink:href="#DejaVuSans-45"/>
      <use x="621.236328" xlink:href="#DejaVuSans-56"/>
     </g>
    </g>
    <g id="patch_67">
     <path d="M 144 478.242188 
L 164 478.242188 
L 164 471.242188 
L 144 471.242188 
z
" style="fill:#bcbd22;"/>
    </g>
    <g id="text_27">
     <!-- featurenum-9 -->
     <g transform="translate(172 478.242188)scale(0.1 -0.1)">
      <defs>
       <path d="M 10.984375 1.515625 
L 10.984375 10.5 
Q 14.703125 8.734375 18.5 7.8125 
Q 22.3125 6.890625 25.984375 6.890625 
Q 35.75 6.890625 40.890625 13.453125 
Q 46.046875 20.015625 46.78125 33.40625 
Q 43.953125 29.203125 39.59375 26.953125 
Q 35.25 24.703125 29.984375 24.703125 
Q 19.046875 24.703125 12.671875 31.3125 
Q 6.296875 37.9375 6.296875 49.421875 
Q 6.296875 60.640625 12.9375 67.421875 
Q 19.578125 74.21875 30.609375 74.21875 
Q 43.265625 74.21875 49.921875 64.515625 
Q 56.59375 54.828125 56.59375 36.375 
Q 56.59375 19.140625 48.40625 8.859375 
Q 40.234375 -1.421875 26.421875 -1.421875 
Q 22.703125 -1.421875 18.890625 -0.6875 
Q 15.09375 0.046875 10.984375 1.515625 
z
M 30.609375 32.421875 
Q 37.25 32.421875 41.125 36.953125 
Q 45.015625 41.5 45.015625 49.421875 
Q 45.015625 57.28125 41.125 61.84375 
Q 37.25 66.40625 30.609375 66.40625 
Q 23.96875 66.40625 20.09375 61.84375 
Q 16.21875 57.28125 16.21875 49.421875 
Q 16.21875 41.5 20.09375 36.953125 
Q 23.96875 32.421875 30.609375 32.421875 
z
" id="DejaVuSans-57"/>
      </defs>
      <use xlink:href="#DejaVuSans-102"/>
      <use x="35.205078" xlink:href="#DejaVuSans-101"/>
      <use x="96.728516" xlink:href="#DejaVuSans-97"/>
      <use x="158.007812" xlink:href="#DejaVuSans-116"/>
      <use x="197.216797" xlink:href="#DejaVuSans-117"/>
      <use x="260.595703" xlink:href="#DejaVuSans-114"/>
      <use x="299.458984" xlink:href="#DejaVuSans-101"/>
      <use x="360.982422" xlink:href="#DejaVuSans-110"/>
      <use x="424.361328" xlink:href="#DejaVuSans-117"/>
      <use x="487.740234" xlink:href="#DejaVuSans-109"/>
      <use x="585.152344" xlink:href="#DejaVuSans-45"/>
      <use x="621.236328" xlink:href="#DejaVuSans-57"/>
     </g>
    </g>
    <g id="patch_68">
     <path d="M 144 492.920313 
L 164 492.920313 
L 164 485.920313 
L 144 485.920313 
z
" style="fill:#17becf;"/>
    </g>
    <g id="text_28">
     <!-- featurenum-10 -->
     <g transform="translate(172 492.920313)scale(0.1 -0.1)">
      <use xlink:href="#DejaVuSans-102"/>
      <use x="35.205078" xlink:href="#DejaVuSans-101"/>
      <use x="96.728516" xlink:href="#DejaVuSans-97"/>
      <use x="158.007812" xlink:href="#DejaVuSans-116"/>
      <use x="197.216797" xlink:href="#DejaVuSans-117"/>
      <use x="260.595703" xlink:href="#DejaVuSans-114"/>
      <use x="299.458984" xlink:href="#DejaVuSans-101"/>
      <use x="360.982422" xlink:href="#DejaVuSans-110"/>
      <use x="424.361328" xlink:href="#DejaVuSans-117"/>
      <use x="487.740234" xlink:href="#DejaVuSans-109"/>
      <use x="585.152344" xlink:href="#DejaVuSans-45"/>
      <use x="621.236328" xlink:href="#DejaVuSans-49"/>
      <use x="684.859375" xlink:href="#DejaVuSans-48"/>
     </g>
    </g>
   </g>
  </g>
 </g>
 <defs>
  <clipPath id="p0601237a70">
   <rect height="434.88" width="837" x="135" y="69.12"/>
  </clipPath>
 </defs>
</svg>
